<svg width="38" height="38" viewBox="0 0 38 38" fill="none" xmlns="http://www.w3.org/2000/svg">
<rect width="38" height="38" rx="5" fill="#FFE5C5"/>
<path d="M18.1055 12.6328L16.3906 11.3555C15.9844 11.0547 15.4961 10.8945 14.9922 10.8945H10.1719C9.52344 10.8945 9 11.418 9 12.0664V25.9336C9 26.582 9.52344 27.1055 10.1719 27.1055H27.8281C28.4766 27.1055 29 26.582 29 25.9336V14.2695C29 13.6211 28.4766 13.0977 27.8281 13.0977H19.5039C19 13.0938 18.5117 12.9336 18.1055 12.6328Z" fill="#F6C012"/>
<path d="M10.1719 14.9961H27.8281C28.4766 14.9961 29 15.5195 29 16.168V25.9336C29 26.582 28.4766 27.1055 27.8281 27.1055H10.1719C9.52344 27.1055 9 26.582 9 25.9336V16.168C9 15.5195 9.52344 14.9961 10.1719 14.9961Z" fill="#FBD87C"/>
<path d="M19 25.9336C21.6967 25.9336 23.8828 23.7475 23.8828 21.0508C23.8828 18.3541 21.6967 16.168 19 16.168C16.3033 16.168 14.1172 18.3541 14.1172 21.0508C14.1172 23.7475 16.3033 25.9336 19 25.9336Z" fill="#FF9E1F"/>
<path d="M20.9766 19.8242C20.9766 20.3477 20.8008 20.6914 20.6055 20.9531C20.2656 21.418 19.8906 21.875 19.8438 22.4531H19.5859V20.5039H19.7813C20.1055 20.5039 20.3672 20.2422 20.3672 19.918C20.3672 19.5938 20.1055 19.332 19.7813 19.332C19.457 19.332 19.1953 19.5938 19.1953 19.918V20.1133H18.8047V19.918C18.8047 19.5938 18.543 19.332 18.2188 19.332C17.8945 19.332 17.6328 19.5938 17.6328 19.918C17.6328 20.2422 17.8945 20.5039 18.2188 20.5039H18.4141V22.4531H18.1562C18.1094 21.875 17.7344 21.418 17.3945 20.9531C17.1992 20.6875 17.0234 20.3477 17.0234 19.8242C17.0234 18.5508 17.9531 17.9258 19 17.9258C20.0469 17.9258 20.9766 18.5508 20.9766 19.8242ZM19.1953 22.457V20.5039H18.8047V22.457H19.1953ZM19.9766 19.918C19.9766 19.8086 19.8906 19.7227 19.7813 19.7227C19.6719 19.7227 19.5859 19.8086 19.5859 19.918V20.1133H19.7813C19.8906 20.1133 19.9766 20.0273 19.9766 19.918ZM18.1562 22.6289V23.3867C18.1562 23.4844 18.2344 23.5625 18.332 23.5625H19.668C19.7656 23.5625 19.8438 23.4844 19.8438 23.3867V22.6289H18.1562ZM18.4648 23.7383V24.0039C18.4648 24.1016 18.543 24.1797 18.6406 24.1797H19.3633C19.4609 24.1797 19.5391 24.1016 19.5391 24.0039V23.7383H18.4648ZM18.2188 19.7227C18.1094 19.7227 18.0234 19.8086 18.0234 19.918C18.0234 20.0273 18.1094 20.1133 18.2188 20.1133H18.4141V19.918C18.4141 19.8086 18.3281 19.7227 18.2188 19.7227Z" fill="#FFEBBD"/>
</svg>
