<svg width="38" height="38" viewBox="0 0 38 38" fill="none" xmlns="http://www.w3.org/2000/svg">
<rect width="38" height="38" rx="5" fill="#D0D5DD"/>
<g clip-path="url(#clip0_2962_8949)">
<path d="M28.7666 20.3288L25.3682 25.2507C24.712 26.1296 23.6573 26.6569 22.5557 26.6569H12.5166L11.9072 20.4929L12.5166 19.9421C13.4073 19.1569 13.9932 18.6179 15.1416 18.3483C16.5127 18.032 17.876 18.4187 18.7784 19.239C19.0127 19.4382 19.1534 19.6257 19.4463 19.6257H19.587C22.3057 19.6257 19.8487 19.6257 22.5557 19.6257C23.2002 19.6257 23.7276 20.1531 23.7276 20.7976C23.7276 21.4421 23.2002 21.9695 22.5557 21.9695H20.1729C19.8447 21.9695 19.587 22.2272 19.587 22.5554C19.587 22.8836 19.8447 23.1413 20.1729 23.1413H22.9425C23.1651 23.1413 23.587 23.0007 23.8096 22.7663L26.9737 18.8288C27.3721 18.3953 28.0401 18.3249 28.5206 18.6765C29.0479 19.0632 29.1534 19.8131 28.7666 20.3288Z" fill="#FEDBAB"/>
<path d="M19.5869 22.5547V19.625C22.3057 19.625 19.8486 19.625 22.5557 19.625C23.2002 19.625 23.7275 20.1523 23.7275 20.7969C23.7275 21.4414 23.2002 21.9688 22.5557 21.9688H20.1729C19.8447 21.9688 19.5869 22.2265 19.5869 22.5547Z" fill="#FEC478"/>
<path d="M28.7666 20.3276L25.3682 25.2496C24.712 26.1285 23.6572 26.6558 22.5557 26.6558H19.5869V22.5542C19.5869 22.8824 19.8447 23.1402 20.1729 23.1402H22.9424C23.1651 23.1402 23.587 22.9996 23.8096 22.7652L26.9737 18.8277C27.3721 18.3941 28.04 18.3238 28.5205 18.6753C29.0478 19.0621 29.1533 19.812 28.7666 20.3276Z" fill="#FEC478"/>
<path d="M12.5786 28.6758L9.06299 21.6446C8.91823 21.3551 9.03553 21.0031 9.32506 20.8584L10.6205 20.2106C11.4886 19.7775 12.5454 20.13 12.9792 20.9968L15.4465 25.9315C15.8811 26.8007 15.5294 27.8556 14.6603 28.2902L13.3648 28.9379C13.0724 29.0831 12.7226 28.963 12.5786 28.6758Z" fill="#ED272C"/>
<path d="M19.5869 12.5156C17.6533 12.5156 16.0322 14.1367 16.0322 16.0703V16.6953C16.0322 17.0235 16.29 17.2812 16.6182 17.2812H22.5557C22.8838 17.2812 23.1416 17.0235 23.1416 16.6953V16.0703C23.1416 14.1367 21.5205 12.5156 19.5869 12.5156Z" fill="#6F7482"/>
<path d="M23.1416 16.0703V16.6953C23.1416 17.0235 22.8838 17.2812 22.5557 17.2812H19.5869V12.5156C21.5205 12.5156 23.1416 14.1367 23.1416 16.0703Z" fill="#080607"/>
<path d="M19.5869 9C18.2979 9 17.2041 10.0547 17.2041 11.3438C17.2041 12.6328 18.2979 13.6875 19.5869 13.6875C20.8759 13.6875 21.9697 12.6328 21.9697 11.3438C21.9697 10.0547 20.8759 9 19.5869 9Z" fill="#6F7482"/>
<path d="M21.9697 11.3438C21.9697 12.6328 20.8759 13.6875 19.5869 13.6875V9C20.8759 9 21.9697 10.0547 21.9697 11.3438Z" fill="#080607"/>
</g>
<defs>
<clipPath id="clip0_2962_8949">
<rect width="20" height="20" fill="white" transform="translate(9 9)"/>
</clipPath>
</defs>
</svg>
