<svg width="35" height="38" viewBox="0 0 35 38" fill="none" xmlns="http://www.w3.org/2000/svg">
<rect width="38" height="38" rx="5" fill="#C9FFE8"/>
<path d="M24.3125 26.5781H9.58594C9.26234 26.5781 9 26.3158 9 25.9922V9.58594C9 9.26234 9.26234 9 9.58594 9H24.3125C24.6361 9 24.8984 9.26234 24.8984 9.58594V25.9922C24.8984 26.3158 24.6361 26.5781 24.3125 26.5781Z" fill="#FFF4F4"/>
<path d="M24.3125 9H16.9492V26.5781H24.3125C24.6361 26.5781 24.8985 26.3158 24.8985 25.9922V9.58594C24.8985 9.26234 24.6361 9 24.3125 9Z" fill="#F6EFEA"/>
<path d="M14.2734 14.8594H11.9297C11.6061 14.8594 11.3438 14.597 11.3438 14.2734V11.9297C11.3438 11.6061 11.6061 11.3438 11.9297 11.3438H14.2734C14.597 11.3438 14.8594 11.6061 14.8594 11.9297V14.2734C14.8594 14.597 14.597 14.8594 14.2734 14.8594ZM12.5156 13.6875H13.6875V12.5156H12.5156V13.6875Z" fill="#4793FF"/>
<path d="M21.9688 14.8594H16.6172C16.2936 14.8594 16.0312 14.597 16.0312 14.2734C16.0312 13.9498 16.2936 13.6875 16.6172 13.6875H21.9688C22.2923 13.6875 22.5547 13.9498 22.5547 14.2734C22.5547 14.597 22.2923 14.8594 21.9688 14.8594Z" fill="#C5E1E6"/>
<path d="M19.117 12.5156H16.6172C16.2936 12.5156 16.0312 12.2533 16.0312 11.9297C16.0312 11.6061 16.2936 11.3438 16.6172 11.3438H19.117C19.4405 11.3438 19.7029 11.6061 19.7029 11.9297C19.7029 12.2533 19.4405 12.5156 19.117 12.5156Z" fill="#C5E1E6"/>
<path d="M14.2734 19.5469H11.9297C11.6061 19.5469 11.3438 19.2845 11.3438 18.9609V16.6172C11.3438 16.2936 11.6061 16.0312 11.9297 16.0312H14.2734C14.597 16.0312 14.8594 16.2936 14.8594 16.6172V18.9609C14.8594 19.2845 14.597 19.5469 14.2734 19.5469ZM12.5156 18.375H13.6875V17.2031H12.5156V18.375Z" fill="#4793FF"/>
<path d="M21.9688 19.5469H16.6172C16.2936 19.5469 16.0312 19.2845 16.0312 18.9609C16.0312 18.6373 16.2936 18.375 16.6172 18.375H21.9688C22.2923 18.375 22.5547 18.6373 22.5547 18.9609C22.5547 19.2845 22.2923 19.5469 21.9688 19.5469Z" fill="#C5E1E6"/>
<path d="M19.117 17.2031H16.6172C16.2936 17.2031 16.0312 16.9408 16.0312 16.6172C16.0312 16.2936 16.2936 16.0312 16.6172 16.0312H19.117C19.4405 16.0312 19.7029 16.2936 19.7029 16.6172C19.7029 16.9408 19.4405 17.2031 19.117 17.2031Z" fill="#C5E1E6"/>
<path d="M14.2734 24.2344H11.9297C11.6061 24.2344 11.3438 23.972 11.3438 23.6484V21.3047C11.3438 20.9811 11.6061 20.7188 11.9297 20.7188H14.2734C14.597 20.7188 14.8594 20.9811 14.8594 21.3047V23.6484C14.8594 23.972 14.5971 24.2344 14.2734 24.2344ZM12.5156 23.0625H13.6875V21.8906H12.5156V23.0625Z" fill="#4793FF"/>
<path d="M22.0859 24.2344H16.6172C16.2936 24.2344 16.0312 23.972 16.0312 23.6484C16.0312 23.3248 16.2936 23.0625 16.6172 23.0625H22.0859C22.4095 23.0625 22.6719 23.3248 22.6719 23.6484C22.6719 23.972 22.4095 24.2344 22.0859 24.2344Z" fill="#C5E1E6"/>
<path d="M22.086 23.0625H16.9492V24.2344H22.086C22.4096 24.2344 22.6719 23.972 22.6719 23.6484C22.6719 23.3248 22.4096 23.0625 22.086 23.0625Z" fill="#A7D2D7"/>
<path d="M19.117 21.8906H16.6172C16.2936 21.8906 16.0312 21.6283 16.0312 21.3047C16.0312 20.9811 16.2936 20.7188 16.6172 20.7188H19.117C19.4405 20.7188 19.7029 20.9811 19.7029 21.3047C19.7029 21.6283 19.4405 21.8906 19.117 21.8906Z" fill="#C5E1E6"/>
<path d="M24.4104 28.4137C26.6757 28.3638 28.4716 26.4871 28.4218 24.2219C28.3719 21.9566 26.4952 20.1607 24.23 20.2105C21.9648 20.2604 20.1688 22.1371 20.2187 24.4023C20.2685 26.6676 22.1452 28.4635 24.4104 28.4137Z" fill="#FFF4F4"/>
<path fill-rule="evenodd" clip-rule="evenodd" d="M24.3124 20.2109C24.3123 20.2109 24.3121 20.2109 24.312 20.2109V28.4141H24.3124C26.5715 28.4141 28.414 26.5716 28.414 24.3125C28.414 22.0534 26.5715 20.2109 24.3124 20.2109Z" fill="#F6EFEA"/>
<path d="M24.3125 29C21.7278 29 19.625 26.8972 19.625 24.3125C19.625 21.7278 21.7278 19.625 24.3125 19.625C26.8972 19.625 29 21.7278 29 24.3125C29 26.8972 26.8972 29 24.3125 29ZM24.3125 20.7969C22.374 20.7969 20.7969 22.374 20.7969 24.3125C20.7969 26.2511 22.374 27.8282 24.3125 27.8282C26.251 27.8282 27.8281 26.2511 27.8281 24.3125C27.8281 22.374 26.251 20.7969 24.3125 20.7969Z" fill="#BEE75E"/>
<path d="M25.3184 25.9043C25.1684 25.9043 25.0184 25.847 24.9041 25.7326L23.8982 24.7268C23.7883 24.6169 23.7266 24.4679 23.7266 24.3125V22.2422C23.7266 21.9186 23.9889 21.6562 24.3125 21.6562C24.6361 21.6562 24.8984 21.9186 24.8984 22.2422V24.0698L25.7327 24.904C25.9615 25.1328 25.9615 25.5038 25.7327 25.7326C25.6183 25.847 25.4683 25.9043 25.3184 25.9043Z" fill="#00429D"/>
<path d="M19.117 11.3438H16.9492V12.5156H19.117C19.4406 12.5156 19.7029 12.2533 19.7029 11.9297C19.7029 11.6061 19.4406 11.3438 19.117 11.3438Z" fill="#A7D2D7"/>
<path d="M21.9688 13.6875H16.9492V14.8594H21.9688C22.2924 14.8594 22.5547 14.597 22.5547 14.2734C22.5547 13.9498 22.2924 13.6875 21.9688 13.6875Z" fill="#A7D2D7"/>
<path d="M19.117 16.0312H16.9492V17.2031H19.117C19.4406 17.2031 19.7029 16.9408 19.7029 16.6172C19.7029 16.2936 19.4406 16.0312 19.117 16.0312Z" fill="#A7D2D7"/>
<path d="M21.9688 18.375H16.9492V19.5469H21.9688C22.2924 19.5469 22.5547 19.2845 22.5547 18.9609C22.5547 18.6373 22.2924 18.375 21.9688 18.375Z" fill="#A7D2D7"/>
<path d="M19.117 20.7188H16.9492V21.8906H19.117C19.4406 21.8906 19.7029 21.6283 19.7029 21.3047C19.7029 20.9811 19.4406 20.7188 19.117 20.7188Z" fill="#A7D2D7"/>
<path d="M25.7326 24.904L24.8984 24.0698V22.2422C24.8984 21.9186 24.6361 21.6562 24.3125 21.6562C24.3123 21.6562 24.3122 21.6563 24.312 21.6563V25.1407L24.904 25.7327C25.0184 25.8471 25.1684 25.9043 25.3183 25.9043C25.4682 25.9043 25.6182 25.8471 25.7326 25.7327C25.9615 25.5038 25.9615 25.1328 25.7326 24.904Z" fill="#00347B"/>
<path d="M24.3125 19.625C24.3123 19.625 24.3122 19.625 24.312 19.625V20.7969H24.3125C26.251 20.7969 27.8281 22.374 27.8281 24.3125C27.8281 26.2511 26.251 27.8282 24.3125 27.8282C24.3123 27.8282 24.3122 27.8282 24.312 27.8282V29H24.3125C26.8972 29 29 26.8972 29 24.3125C29 21.7278 26.8972 19.625 24.3125 19.625Z" fill="#00CB75"/>
</svg>
