<svg width="39" height="38" viewBox="0 0 39 38" fill="none" xmlns="http://www.w3.org/2000/svg">
<rect x="0.5" width="38" height="38" rx="5" fill="#E2EEFF"/>
<g clip-path="url(#clip0_2962_8913)">
<path d="M13.0547 20.4844C11.7621 20.4844 10.6719 19.4332 10.6719 18.1406C10.6719 16.8481 11.7621 15.7969 13.0547 15.7969C14.3473 15.7969 15.3984 16.8481 15.3984 18.1406C15.3984 19.4332 14.3473 20.4844 13.0547 20.4844Z" fill="#6F7482"/>
<path d="M13.0547 20.4844C11.113 20.4844 9.5 22.0583 9.5 24V25.1719H14.2266L16.0564 23.5016L15.6266 21.6183C14.9843 20.925 14.0741 20.4844 13.0547 20.4844Z" fill="#6F7482"/>
<path d="M25.9453 20.4844C24.6527 20.4844 23.6016 19.4332 23.6016 18.1406C23.6016 16.8481 24.6527 15.7969 25.9453 15.7969C27.2379 15.7969 28.2891 16.8481 28.2891 18.1406C28.2891 19.4332 27.2379 20.4844 25.9453 20.4844Z" fill="#ED272C"/>
<path d="M25.9453 20.4844C24.9258 20.4844 24.0157 20.925 23.3734 21.6183L23.0298 23.7208L24.7734 25.1719H29.5V24C29.5 22.0583 27.887 20.4844 25.9453 20.4844Z" fill="#ED272C"/>
<path d="M19.5 12.8281C17.5664 12.8281 15.9844 14.4492 15.9844 16.3828C15.9844 18.3164 17.5664 19.8984 19.5 19.8984C21.4336 19.8984 23.0156 18.3164 23.0156 16.3828C23.0156 14.4492 21.4336 12.8281 19.5 12.8281Z" fill="#76E2F8"/>
<path d="M24.7734 25.1719H14.2266C14.2266 23.8007 14.7657 22.5585 15.6211 21.621C16.5938 20.5665 17.9648 19.8984 19.5 19.8984C21.0352 19.8984 22.4062 20.5665 23.3789 21.621C24.2343 22.5585 24.7734 23.8007 24.7734 25.1719Z" fill="#76E2F8"/>
<path d="M19.5 19.8984V12.8281C21.4336 12.8281 23.0156 14.4492 23.0156 16.3828C23.0156 18.3164 21.4336 19.8984 19.5 19.8984Z" fill="#24C4EA"/>
<path d="M24.7734 25.1719H19.5V19.8984C21.0352 19.8984 22.4062 20.5665 23.3789 21.621C24.2343 22.5585 24.7734 23.8007 24.7734 25.1719Z" fill="#24C4EA"/>
</g>
<defs>
<clipPath id="clip0_2962_8913">
<rect width="20" height="20" fill="white" transform="translate(9.5 9)"/>
</clipPath>
</defs>
</svg>
