<svg width="20" height="20" viewBox="0 0 20 20" fill="none" xmlns="http://www.w3.org/2000/svg">
<path d="M15.3795 4.64689C15.3008 4.64689 15.2217 4.64879 15.1423 4.65257C14.5744 2.53756 12.4573 1 10 1C7.54273 1 5.42563 2.53756 4.85766 4.65257C4.77828 4.64879 4.69918 4.64689 4.62055 4.64689C2.07273 4.64689 0 6.52049 0 8.82344C0 11.1264 2.07273 13 4.62055 13H6.72918V7.98771C6.72918 7.11159 7.51773 6.39881 8.48699 6.39881H11.513C12.4822 6.39881 13.2708 7.11159 13.2708 7.98771V13H15.3794C17.9273 13 20 11.1264 20 8.82344C20 6.52049 17.9273 4.64689 15.3795 4.64689Z" fill="#343A40"/>
<path d="M13.0259 13.4637H12.099V7.67336C12.099 7.40504 11.8366 7.1875 11.513 7.1875H8.48704C8.16345 7.1875 7.9011 7.40504 7.9011 7.67336V13.4638H6.97411C6.75212 13.4638 6.54919 13.5678 6.44997 13.7324C6.35075 13.8971 6.37228 14.0941 6.50556 14.2413L9.53149 17.5834C9.64216 17.7056 9.81571 17.7775 10 17.7775C10.1844 17.7775 10.3579 17.7056 10.4686 17.5834L13.4945 14.2413C13.6278 14.0941 13.6493 13.8971 13.5501 13.7324C13.4509 13.5678 13.2479 13.4637 13.0259 13.4637Z" fill="#343A40"/>
</svg>
