<svg width="10" height="6" viewBox="0 0 10 6" fill="none" xmlns="http://www.w3.org/2000/svg">
<path fill-rule="evenodd" clip-rule="evenodd" d="M5.7066 5.70627C5.5191 5.89353 5.26493 5.99872 4.99993 5.99872C4.73493 5.99872 4.48077 5.89353 4.29327 5.70627L0.521267 1.9356C0.333759 1.748 0.228453 1.4936 0.228516 1.22836C0.228578 0.963126 0.334004 0.708775 0.5216 0.521267C0.709197 0.333759 0.963597 0.228453 1.22884 0.228516C1.49408 0.228578 1.74843 0.334004 1.93593 0.5216L4.99993 3.5856L8.06393 0.5216C8.25245 0.339351 8.50501 0.238436 8.7672 0.24059C9.0294 0.242744 9.28027 0.347795 9.46576 0.533116C9.65126 0.718438 9.75655 0.969202 9.75895 1.2314C9.76135 1.4936 9.66067 1.74625 9.4786 1.93493L5.70727 5.70693L5.7066 5.70627Z" fill="#6C757D"/>
</svg>
