<svg width="8" height="6" viewBox="0 0 8 6" fill="none" xmlns="http://www.w3.org/2000/svg">
<path fill-rule="evenodd" clip-rule="evenodd" d="M4.40446 4.94425C4.26384 5.0847 4.07321 5.16359 3.87446 5.16359C3.67571 5.16359 3.48509 5.0847 3.34446 4.94425L0.515462 2.11625C0.374831 1.97555 0.295852 1.78475 0.295898 1.58582C0.295945 1.3869 0.375014 1.19613 0.515712 1.0555C0.656409 0.91487 0.84721 0.835891 1.04614 0.835938C1.24507 0.835984 1.43583 0.915054 1.57646 1.05575L3.87446 3.35375L6.17246 1.05575C6.31385 0.919064 6.50327 0.843378 6.69992 0.844994C6.89656 0.846609 7.08471 0.925397 7.22383 1.06439C7.36296 1.20338 7.44192 1.39145 7.44372 1.5881C7.44552 1.78475 7.37002 1.97424 7.23346 2.11575L4.40496 4.94475L4.40446 4.94425Z" fill="#ED272C"/>
</svg>
