<svg width="15" height="9" viewBox="0 0 15 9" fill="none" xmlns="http://www.w3.org/2000/svg">
<path fill-rule="evenodd" clip-rule="evenodd" d="M6.78287 0.783373C7.06412 0.502472 7.44537 0.344692 7.84287 0.344692C8.24037 0.344692 8.62162 0.502472 8.90287 0.783373L14.5609 6.43937C14.8421 6.72077 15.0001 7.10237 15 7.50023C14.9999 7.89808 14.8418 8.27961 14.5604 8.56087C14.279 8.84213 13.8974 9.00009 13.4995 9C13.1017 8.99991 12.7201 8.84177 12.4389 8.56037L7.84287 3.96437L3.24687 8.56037C2.9641 8.83375 2.58527 8.98512 2.19197 8.98189C1.79867 8.97866 1.42237 8.82108 1.14413 8.5431C0.865884 8.26512 0.707953 7.88897 0.704351 7.49568C0.70075 7.10238 0.851766 6.7234 1.12487 6.44037L6.78187 0.782372L6.78287 0.783373Z" fill="#6C757D"/>
</svg>
