<svg width="15" height="10" viewBox="0 0 15 10" fill="none" xmlns="http://www.w3.org/2000/svg">
<path fill-rule="evenodd" clip-rule="evenodd" d="M8.20809 9.06038C7.92684 9.34128 7.5456 9.49906 7.14809 9.49906C6.75059 9.49906 6.36934 9.34128 6.08809 9.06038L0.430094 3.40438C0.148832 3.12298 -0.00912693 2.74138 -0.00903316 2.34352C-0.00893939 1.94567 0.149199 1.56414 0.430594 1.28288C0.711988 1.00162 1.09359 0.843656 1.49145 0.84375C1.88931 0.843844 2.27083 1.00198 2.55209 1.28338L7.14809 5.87938L11.7441 1.28338C12.0269 1.01 12.4057 0.858631 12.799 0.861862C13.1923 0.865093 13.5686 1.02267 13.8468 1.30065C14.1251 1.57863 14.283 1.95478 14.2866 2.34807C14.2902 2.74137 14.1392 3.12035 13.8661 3.40338L8.20909 9.06138L8.20809 9.06038Z" fill="#6C757D"/>
</svg>
