<svg width="16" height="16" viewBox="0 0 16 16" fill="none" xmlns="http://www.w3.org/2000/svg">
<path d="M12.6875 1.9375H10.6562V1.40625C10.6562 0.630844 10.0254 0 9.25 0H6.75C5.97459 0 5.34375 0.630844 5.34375 1.40625V1.9375H3.3125C2.53584 1.9375 1.90625 2.56709 1.90625 3.34375V3.8125C1.90625 4.07137 2.11612 4.28125 2.375 4.28125H13.625C13.8839 4.28125 14.0938 4.07137 14.0938 3.8125V3.34375C14.0938 2.56709 13.4642 1.9375 12.6875 1.9375ZM6.28125 1.40625C6.28125 1.14778 6.49153 0.9375 6.75 0.9375H9.25C9.50847 0.9375 9.71875 1.14778 9.71875 1.40625V1.9375H6.28125V1.40625Z" fill="#8D6E63"/>
<path d="M3.375 14.424C3.41091 14.8548 3.60588 15.2533 3.92404 15.546C4.24219 15.8388 4.6555 16 5.08782 16H10.9125C11.3448 16 11.7581 15.8388 12.0763 15.5461C12.3944 15.2533 12.5894 14.8548 12.6253 14.424L13.3924 5.21875H2.60791L3.375 14.424ZM10.0327 13.4649L10.5015 7.21494C10.5208 6.95678 10.7458 6.76319 11.004 6.78256C11.2621 6.80194 11.4557 7.02691 11.4363 7.28506L10.9676 13.5351C10.9482 13.7932 10.7233 13.9868 10.4651 13.9674C10.2069 13.9481 10.0133 13.7231 10.0327 13.4649ZM7.53141 7.25C7.53141 6.99112 7.74129 6.78125 8.00016 6.78125C8.25904 6.78125 8.46891 6.99112 8.46891 7.25V13.5C8.46891 13.7589 8.25904 13.9688 8.00016 13.9688C7.74129 13.9688 7.53141 13.7589 7.53141 13.5V7.25ZM4.99635 6.78256C5.2545 6.76319 5.47947 6.95678 5.49885 7.21494L5.9676 13.4649C5.98697 13.7231 5.79338 13.9481 5.53522 13.9674C5.27707 13.9868 5.0521 13.7932 5.03272 13.5351L4.56397 7.28506C4.54463 7.02691 4.73819 6.80194 4.99635 6.78256Z" fill="#8D6E63"/>
</svg>
