<svg width="76" height="75" viewBox="0 0 76 75" fill="none" xmlns="http://www.w3.org/2000/svg">
<g clip-path="url(#clip0_1705_3515)">
<path d="M38 0C17.3218 0 0.5 16.8227 0.5 37.5C0.5 58.1773 17.3218 75 38 75C58.6782 75 75.5 58.1773 75.5 37.5C75.5 16.8227 58.6782 0 38 0ZM55.6131 33.3253L38.1975 50.7409C36.2869 52.6515 33.1915 52.6516 31.2808 50.7409L21.2021 40.6622C19.2913 38.7523 19.2913 35.6555 21.2021 33.7455C23.1128 31.8347 26.208 31.8347 28.1188 33.7455L34.7391 40.3651L48.6964 26.4083C50.6072 24.4976 53.7024 24.4976 55.6131 26.4083C57.5239 28.3185 57.5239 31.4153 55.6131 33.3253Z" fill="#ED272C"/>
</g>
<defs>
<clipPath id="clip0_1705_3515">
<rect width="75" height="75" fill="white" transform="translate(0.5)"/>
</clipPath>
</defs>
</svg>
