<svg width="22" height="20" viewBox="0 0 22 20" fill="none" xmlns="http://www.w3.org/2000/svg">
<path d="M1 10C1 6.25027 1 4.3754 1.95491 3.06107C2.26331 2.6366 2.6366 2.26331 3.06107 1.95491C4.3754 1 6.25027 1 10 1H12C15.7497 1 17.6246 1 18.9389 1.95491C19.3634 2.26331 19.7367 2.6366 20.0451 3.06107C21 4.3754 21 6.25027 21 10C21 13.7497 21 15.6246 20.0451 16.9389C19.7367 17.3634 19.3634 17.7367 18.9389 18.0451C17.6246 19 15.7497 19 12 19H10C6.25027 19 4.3754 19 3.06107 18.0451C2.6366 17.7367 2.26331 17.3634 1.95491 16.9389C1 15.6246 1 13.7497 1 10Z" stroke="#343A40" stroke-width="1.8" stroke-linejoin="round"/>
<path d="M8.5 1.5L8.5 18.5" stroke="#343A40" stroke-width="1.8" stroke-linejoin="round"/>
<path d="M4 5C4 5 4.91421 5 5.5 5" stroke="#343A40" stroke-width="1.8" stroke-linecap="round" stroke-linejoin="round"/>
<path d="M4 9H5.5" stroke="#343A40" stroke-width="1.8" stroke-linecap="round" stroke-linejoin="round"/>
<path d="M14 8L15.2265 9.05719C15.7422 9.50163 16 9.72386 16 10C16 10.2761 15.7422 10.4984 15.2265 10.9428L14 12" stroke="#343A40" stroke-width="1.8" stroke-linecap="round" stroke-linejoin="round"/>
</svg>
