<svg width="248" height="148" viewBox="0 0 248 148" fill="none" xmlns="http://www.w3.org/2000/svg">
<g clip-path="url(#clip0_2973_68146)">
<path d="M171.487 96.1621H75.879C74.2359 96.1621 72.9037 97.4943 72.9037 99.1375C72.9037 100.781 74.2359 102.113 75.879 102.113H171.487C173.131 102.113 174.463 100.781 174.463 99.1375C174.463 97.4943 173.131 96.1621 171.487 96.1621Z" fill="#CED4DA"/>
<path d="M82.0281 46.5742C80.3849 46.5742 79.0527 47.9064 79.0527 49.5496V85.2539C79.0527 86.8971 80.3849 88.2293 82.0281 88.2293C83.6713 88.2293 85.0035 86.8971 85.0035 85.2539V49.5496C85.0035 47.9064 83.6713 46.5742 82.0281 46.5742Z" fill="#CED4DA"/>
<path d="M93.9295 58.4746C92.2863 58.4746 90.9541 59.8068 90.9541 61.45V85.2529C90.9541 86.8961 92.2863 88.2282 93.9295 88.2282C95.5727 88.2282 96.9048 86.8961 96.9048 85.2529V61.45C96.9048 59.8068 95.5727 58.4746 93.9295 58.4746Z" fill="#CED4DA"/>
<path d="M105.831 66.4102C104.188 66.4102 102.856 67.7423 102.856 69.3855V85.2541C102.856 86.8973 104.188 88.2295 105.831 88.2295C107.474 88.2295 108.806 86.8973 108.806 85.2541V69.3855C108.806 67.7423 107.474 66.4102 105.831 66.4102Z" fill="#CED4DA"/>
<path d="M117.732 66.4102C116.089 66.4102 114.757 67.7423 114.757 69.3855V85.2541C114.757 86.8973 116.089 88.2295 117.732 88.2295C119.376 88.2295 120.708 86.8973 120.708 85.2541V69.3855C120.708 67.7423 119.376 66.4102 117.732 66.4102Z" fill="#CED4DA"/>
<path d="M129.634 52.5254C127.991 52.5254 126.658 53.8576 126.658 55.5008V85.2544C126.658 86.8976 127.991 88.2297 129.634 88.2297C131.277 88.2297 132.609 86.8976 132.609 85.2544V55.5008C132.609 53.8576 131.277 52.5254 129.634 52.5254Z" fill="#CED4DA"/>
<path d="M141.535 38.6406C139.892 38.6406 138.56 39.9728 138.56 41.616V85.2546C138.56 86.8978 139.892 88.23 141.535 88.23C143.178 88.23 144.511 86.8978 144.511 85.2546V41.616C144.511 39.9728 143.178 38.6406 141.535 38.6406Z" fill="#CED4DA"/>
<path d="M153.437 52.5254C151.794 52.5254 150.461 53.8576 150.461 55.5008V85.2544C150.461 86.8976 151.794 88.2297 153.437 88.2297C155.08 88.2297 156.412 86.8976 156.412 85.2544V55.5008C156.412 53.8576 155.08 52.5254 153.437 52.5254Z" fill="#CED4DA"/>
<path d="M165.338 26.7383C163.695 26.7383 162.363 28.0704 162.363 29.7136V85.2537C162.363 86.8969 163.695 88.2291 165.338 88.2291C166.981 88.2291 168.314 86.8969 168.314 85.2537V29.7136C168.314 28.0704 166.981 26.7383 165.338 26.7383Z" fill="#CED4DA"/>
<path d="M123.683 30.3092H108.806V15.4324C108.806 13.7892 107.474 12.457 105.831 12.457C94.3468 12.457 85.0035 21.8003 85.0035 33.2846C85.0035 44.7689 94.3468 54.1121 105.831 54.1121C117.315 54.1121 126.659 44.7689 126.659 33.2846C126.659 31.6414 125.326 30.3092 123.683 30.3092Z" fill="#CED4DA"/>
<path d="M117.733 0.554688C116.089 0.554688 114.757 1.88686 114.757 3.53005V21.3822C114.757 23.0254 116.089 24.3576 117.733 24.3576H135.585C137.228 24.3576 138.56 23.0254 138.56 21.3822C138.56 9.89792 129.217 0.554688 117.733 0.554688Z" fill="#CED4DA"/>
</g>
<path d="M171.487 129.197H75.8787C74.2355 129.197 72.9033 130.529 72.9033 132.173C72.9033 133.816 74.2355 135.148 75.8787 135.148H171.487C173.13 135.148 174.462 133.816 174.462 132.173C174.462 130.529 173.13 129.197 171.487 129.197Z" fill="#CED4DA"/>
<path d="M180.65 141.918H66.7163C64.7582 141.918 63.1707 143.244 63.1707 144.88C63.1707 146.516 64.7582 147.842 66.7163 147.842H180.65C182.608 147.842 184.195 146.516 184.195 144.88C184.195 143.244 182.608 141.918 180.65 141.918Z" fill="#CED4DA"/>
<defs>
<clipPath id="clip0_2973_68146">
<rect width="101.559" height="101.559" fill="white" transform="translate(72.9034 0.556641)"/>
</clipPath>
</defs>
</svg>
