<svg width="12" height="12" viewBox="0 0 12 12" fill="none" xmlns="http://www.w3.org/2000/svg">
<path d="M6.46875 9.28125H5.53125V5.0625H6.46875V9.28125Z" fill="#ADB5BD" stroke="#ADB5BD" stroke-miterlimit="10" stroke-linecap="round" stroke-linejoin="round"/>
<path d="M6.03125 3.1875C6.03125 3.17025 6.01725 3.15625 6 3.15625C5.98275 3.15625 5.96875 3.17025 5.96875 3.1875C5.96875 3.20475 5.98275 3.21875 6 3.21875C6.01725 3.21875 6.03125 3.20475 6.03125 3.1875Z" fill="black" stroke="#6C757D"/>
<path d="M6.46875 3.1875C6.46875 3.44639 6.25889 3.65625 6 3.65625C5.74111 3.65625 5.53125 3.44639 5.53125 3.1875C5.53125 2.92861 5.74111 2.71875 6 2.71875C6.25889 2.71875 6.46875 2.92861 6.46875 3.1875Z" fill="#ADB5BD" stroke="#ADB5BD" stroke-miterlimit="10" stroke-linecap="round" stroke-linejoin="round"/>
<circle cx="6" cy="6" r="5.5" stroke="#ADB5BD"/>
</svg>
