<svg width="14" height="16" viewBox="0 0 14 16" fill="none" xmlns="http://www.w3.org/2000/svg">
<path d="M11.6875 1.9375H9.65625V1.40625C9.65625 0.630844 9.02541 0 8.25 0H5.75C4.97459 0 4.34375 0.630844 4.34375 1.40625V1.9375H2.3125C1.53584 1.9375 0.90625 2.56709 0.90625 3.34375V3.8125C0.90625 4.07137 1.11612 4.28125 1.375 4.28125H12.625C12.8839 4.28125 13.0938 4.07137 13.0938 3.8125V3.34375C13.0938 2.56709 12.4642 1.9375 11.6875 1.9375ZM5.28125 1.40625C5.28125 1.14778 5.49153 0.9375 5.75 0.9375H8.25C8.50847 0.9375 8.71875 1.14778 8.71875 1.40625V1.9375H5.28125V1.40625Z" fill="#8D6E63"/>
<path d="M2.37476 14.424C2.41067 14.8548 2.60563 15.2533 2.92379 15.546C3.24195 15.8388 3.65526 16 4.08757 16H9.91223C10.3446 16 10.7579 15.8388 11.076 15.5461C11.3941 15.2533 11.5892 14.8548 11.625 14.424L12.3922 5.21875H1.60767L2.37476 14.424ZM9.03248 13.4649L9.50123 7.21494C9.5206 6.95678 9.74557 6.76319 10.0037 6.78256C10.2619 6.80194 10.4555 7.02691 10.4361 7.28506L9.96735 13.5351C9.94798 13.7932 9.72301 13.9868 9.46485 13.9674C9.2067 13.9481 9.0131 13.7231 9.03248 13.4649ZM6.53117 7.25C6.53117 6.99112 6.74104 6.78125 6.99992 6.78125C7.25879 6.78125 7.46867 6.99112 7.46867 7.25V13.5C7.46867 13.7589 7.25879 13.9688 6.99992 13.9688C6.74104 13.9688 6.53117 13.7589 6.53117 13.5V7.25ZM3.9961 6.78256C4.25426 6.76319 4.47923 6.95678 4.4986 7.21494L4.96735 13.4649C4.98673 13.7231 4.79313 13.9481 4.53498 13.9674C4.27682 13.9868 4.05185 13.7932 4.03248 13.5351L3.56373 7.28506C3.54439 7.02691 3.73795 6.80194 3.9961 6.78256Z" fill="#8D6E63"/>
</svg>
