<svg width="290" height="260" viewBox="0 0 290 260" fill="none" xmlns="http://www.w3.org/2000/svg">
<path d="M49.6313 159.73L42.0188 159.875L38.1555 159.933C36.8644 159.957 35.5669 159.952 34.2724 159.962L34.0148 159.964L34.0137 159.73L33.9824 153.911L33.9812 153.65L34.2724 153.651L41.9516 153.684C44.5111 153.687 47.0712 153.742 49.6308 153.769L49.7908 153.771L49.7891 153.911C49.7781 154.899 49.7392 155.881 49.7131 156.851L49.6313 159.73ZM49.6313 159.73L49.549 156.79C49.5229 155.821 49.484 154.863 49.473 153.911L49.6313 154.053C47.0718 154.079 44.5117 154.136 41.9521 154.138L34.2729 154.171L34.5624 153.911L34.531 159.73L34.2724 159.498C35.5379 159.508 36.8 159.502 38.069 159.527L41.8849 159.585L49.6313 159.73Z" fill="#E9E9E9"/>
<path d="M41.0641 161.246H25.7051V167.065H41.0641V161.246Z" fill="#E9E9E9"/>
<path d="M89.5125 103.255L81.9 103.4L78.0367 103.458C76.7456 103.483 75.4481 103.478 74.1536 103.487L73.896 103.489L73.8949 103.256L73.8636 97.4368L73.8618 97.1758L74.153 97.1768L81.8322 97.2096C84.3917 97.2122 86.9518 97.2683 89.5114 97.2949L89.6715 97.2964L89.6697 97.4368C89.6587 98.4243 89.6198 99.4061 89.5937 100.377L89.5125 103.255ZM89.5125 103.255L89.4302 100.315C89.4041 99.3463 89.3652 98.3884 89.3542 97.4363L89.5125 97.5783C86.953 97.6048 84.3929 97.6609 81.8333 97.6635L74.1541 97.6963L74.4436 97.4368L74.4122 103.256L74.1536 103.024C75.4191 103.033 76.6812 103.028 77.9502 103.052L81.7661 103.111L89.5125 103.255Z" fill="#E9E9E9"/>
<path d="M80.9448 104.773H65.5864V110.592H80.9448V104.773Z" fill="#E9E9E9"/>
<path d="M72.4114 103.255L64.7989 103.4L60.9355 103.458C59.6444 103.483 58.3469 103.478 57.0524 103.487L56.7949 103.489L56.7937 103.256L56.7624 97.4368L56.7612 97.1758L57.0524 97.1768L64.7316 97.2096C67.2917 97.2122 69.8513 97.2683 72.4108 97.2949L72.5709 97.2964L72.5691 97.4368C72.5581 98.4243 72.5192 99.4061 72.4932 100.377L72.4114 103.255ZM72.4114 103.255L72.329 100.315C72.3029 99.3463 72.264 98.3884 72.253 97.4363L72.4114 97.5783C69.8518 97.6048 67.2917 97.6609 64.7322 97.6635L57.053 97.6963L57.3424 97.4368L57.3111 103.256L57.0524 103.024C58.3179 103.033 59.58 103.028 60.8491 103.052L64.6649 103.111L72.4114 103.255Z" fill="#E9E9E9"/>
<path d="M253.067 139.4L245.455 139.545L241.592 139.603C240.301 139.627 239.003 139.622 237.709 139.632L237.451 139.634L237.45 139.4L237.419 133.581L237.417 133.32L237.708 133.321L245.387 133.354C247.947 133.357 250.507 133.412 253.066 133.439L253.226 133.441L253.225 133.581C253.214 134.569 253.175 135.551 253.149 136.521L253.067 139.4ZM253.067 139.4L252.985 136.46C252.959 135.491 252.92 134.533 252.909 133.581L253.067 133.723C250.508 133.749 247.948 133.805 245.388 133.808L237.709 133.841L237.999 133.581L237.967 139.4L237.709 139.168C238.974 139.178 240.236 139.172 241.505 139.197L245.321 139.255L253.067 139.4Z" fill="#E9E9E9"/>
<path d="M260.164 141.371H244.805V147.19H260.164V141.371Z" fill="#E9E9E9"/>
<path d="M233.975 86.7548C235.883 76.0824 227.78 66.0436 215.876 64.3326C203.973 62.6216 192.776 69.8863 190.867 80.5587C188.959 91.2311 197.062 101.27 208.965 102.981C220.869 104.692 232.066 97.4272 233.975 86.7548Z" fill="#E9E9E9"/>
<path d="M216.73 102.538C228.089 100.904 235.82 91.3245 233.998 81.1406C232.175 70.9568 221.49 64.0255 210.132 65.6592C198.773 67.2928 191.042 76.8728 192.865 87.0566C194.687 97.2405 205.372 104.172 216.73 102.538Z" fill="#DBDBDB"/>
<path d="M228.662 95.0317C235.4 87.4901 234.043 76.4793 225.631 70.4384C217.219 64.3974 204.938 65.6139 198.2 73.1554C191.462 80.6969 192.819 91.7077 201.231 97.7487C209.642 103.79 221.924 102.573 228.662 95.0317Z" fill="white"/>
<path opacity="0.5" d="M232.497 80.3837C223.612 85.2109 209.007 93.1294 200.844 97.4704C198.554 95.7372 196.716 93.5413 195.511 91.0422L222.508 68.6094C227.537 70.9827 231.265 75.2675 232.497 80.3837Z" fill="#E9E9E9"/>
<path opacity="0.5" d="M232.926 84.707C232.851 86.7059 232.4 88.619 231.636 90.3922L207.297 100.712C206.23 100.394 205.202 99.9981 204.224 99.5275C211.576 95.718 225.01 88.788 232.926 84.707Z" fill="#E9E9E9"/>
<path d="M213.614 67.8711H213.237V70.5231H213.614V67.8711Z" fill="#C7C7C7"/>
<path d="M204.532 69.9518L204.205 70.1211L205.684 72.4177L206.011 72.2485L204.532 69.9518Z" fill="#C7C7C7"/>
<path d="M197.855 75.8362L197.667 76.1289L200.228 77.4552L200.417 77.1625L197.855 75.8362Z" fill="#C7C7C7"/>
<path d="M198.286 83.9277H195.329V84.2657H198.286V83.9277Z" fill="#C7C7C7"/>
<path d="M200.226 90.7465L197.665 92.0723L197.853 92.365L200.415 91.0393L200.226 90.7465Z" fill="#C7C7C7"/>
<path d="M205.692 95.7589L204.215 98.0566L204.542 98.2257L206.019 95.928L205.692 95.7589Z" fill="#C7C7C7"/>
<path d="M213.614 97.6699H213.237V100.322H213.614V97.6699Z" fill="#C7C7C7"/>
<path d="M221.154 95.7663L220.827 95.9355L222.305 98.2317L222.632 98.0625L221.154 95.7663Z" fill="#C7C7C7"/>
<path d="M226.641 90.7366L226.453 91.0293L229.015 92.3556L229.203 92.0629L226.641 90.7366Z" fill="#C7C7C7"/>
<path d="M231.523 83.9277H228.565V84.2657H231.523V83.9277Z" fill="#C7C7C7"/>
<path d="M229.009 75.828L226.447 77.1543L226.636 77.447L229.197 76.1207L229.009 75.828Z" fill="#C7C7C7"/>
<path d="M222.304 69.9584L220.827 72.2559L221.154 72.4249L222.632 70.1275L222.304 69.9584Z" fill="#C7C7C7"/>
<path d="M213.709 69.0716L214.351 85.2769L212.5 85.2561L213.207 69.0664L213.709 69.0716Z" fill="#C7C7C7"/>
<path d="M224.968 78.4445L212.808 85.4037L211.924 83.9451L224.728 78.0488L224.968 78.4445Z" fill="#A6A6A6"/>
<path d="M214.057 84.0956C214.057 84.4086 213.774 84.6619 213.426 84.6619C213.077 84.6619 212.794 84.4081 212.794 84.0956C212.794 83.7831 213.077 83.5293 213.426 83.5293C213.775 83.5293 214.057 83.7831 214.057 84.0956Z" fill="#C7C7C7"/>
<path d="M145 236.495C197.222 236.495 239.557 231.754 239.557 225.906C239.557 220.057 197.222 215.316 145 215.316C92.7776 215.316 50.4431 220.057 50.4431 225.906C50.4431 231.754 92.7776 236.495 145 236.495Z" fill="#E9E9E9"/>
<path d="M23.667 199.571L54.0004 199.445L84.3333 199.399L145 199.312L205.666 199.399L236 199.445L266.333 199.571L236 199.699L205.666 199.745L145 199.831L84.3333 199.744L54.0004 199.698L23.667 199.571Z" fill="#263238"/>
<path d="M240.596 119.37C240.596 119.37 228.026 117.792 230.965 104.188C230.965 104.188 245.009 107.014 240.596 119.37Z" fill="#ED272C"/>
<path opacity="0.1" d="M240.596 119.37C240.596 119.37 228.026 117.792 230.965 104.188C230.965 104.188 245.009 107.014 240.596 119.37Z" fill="black"/>
<path d="M239.961 116.529C239.716 115.841 239.426 115.165 239.105 114.501C239.095 114.414 239.081 114.328 239.072 114.244C239.054 114.057 239.037 113.869 239.02 113.682C238.985 113.276 238.956 112.87 238.93 112.464C238.876 111.652 238.818 110.838 238.805 110.024C238.804 109.98 238.728 109.981 238.728 110.026C238.72 110.84 238.706 111.654 238.741 112.468C238.759 112.875 238.785 113.281 238.815 113.687C238.821 113.777 238.829 113.867 238.836 113.957C238.133 112.602 237.283 111.306 236.316 110.094C235.885 109.552 235.43 109.032 234.942 108.531C234.441 108.017 233.911 107.528 233.404 107.018C233.372 106.986 233.317 107.036 233.351 107.068C234.276 107.933 235.04 108.959 235.774 109.956C236.156 110.474 236.516 111.006 236.86 111.547C236.821 111.534 236.781 111.52 236.743 111.506C236.594 111.451 236.446 111.396 236.295 111.344C235.954 111.226 235.612 111.11 235.269 110.995C234.595 110.771 233.92 110.55 233.248 110.321C233.208 110.307 233.179 110.37 233.22 110.384C233.888 110.623 234.55 110.876 235.21 111.132C235.534 111.257 235.859 111.382 236.183 111.507C236.346 111.57 236.51 111.629 236.674 111.689C236.784 111.729 236.892 111.778 237.008 111.794C237.261 112.202 237.512 112.612 237.743 113.029C238.325 114.082 238.843 115.168 239.279 116.276C239.31 116.354 239.339 116.431 239.369 116.509C239.059 116.322 238.663 116.199 238.339 116.064C237.907 115.885 237.472 115.711 237.038 115.532C236.157 115.169 235.281 114.801 234.436 114.373C234.393 114.351 234.355 114.412 234.399 114.434C235.262 114.856 236.109 115.307 236.974 115.728C237.407 115.939 237.841 116.143 238.284 116.335C238.648 116.493 239.057 116.713 239.465 116.759C239.858 117.8 240.188 118.853 240.289 119.956C240.429 121.494 240.413 123.045 240.453 124.587C240.454 124.614 240.497 124.612 240.499 124.586C240.625 123.187 240.695 121.775 240.702 120.372C240.709 119.037 240.413 117.795 239.961 116.529Z" fill="#263238"/>
<path d="M238.026 108.529C237.927 109.321 237.839 110.132 237.9 110.929C237.902 110.951 237.937 110.949 237.939 110.928C237.989 110.132 237.997 109.338 238.1 108.546C238.106 108.503 238.031 108.486 238.026 108.529Z" fill="#263238"/>
<path d="M234.431 109.212C233.874 109 233.321 108.801 232.815 108.5C232.774 108.475 232.736 108.537 232.778 108.56C233.285 108.844 233.829 109.121 234.41 109.26C234.441 109.267 234.462 109.223 234.431 109.212Z" fill="#263238"/>
<path d="M240.998 140.967C240.987 139.722 240.961 138.477 240.945 137.231C240.919 133.096 240.88 128.96 240.798 124.824C240.732 121.541 240.646 118.259 240.542 114.976C240.542 114.957 240.528 114.944 240.51 114.934C240.505 114.037 240.501 113.141 240.495 112.244C240.495 112.221 240.465 112.21 240.435 112.211C240.405 112.211 240.375 112.223 240.375 112.246C240.368 113.144 240.362 114.042 240.356 114.94C240.341 114.95 240.328 114.962 240.327 114.979C240.143 120.822 239.977 126.666 239.938 132.511C239.931 133.699 239.932 134.887 239.926 136.075C239.881 139.886 239.861 143.696 239.877 147.507C239.872 148.114 239.864 148.72 239.862 149.327C239.848 152.813 239.902 156.299 239.904 159.786C239.904 159.974 240.136 160.067 240.383 160.075C240.665 160.086 240.965 159.985 240.965 159.77C240.967 155.926 240.995 152.081 240.994 148.237C241.008 145.814 241.018 143.391 240.998 140.967Z" fill="#263238"/>
<path d="M235.748 137.185C235.748 137.185 229.702 133.169 223.964 135.883C218.225 138.596 217.326 149.057 217.326 149.057C217.326 149.057 225.752 150.137 231.058 145.609C236.172 141.246 235.748 137.185 235.748 137.185Z" fill="#ED272C"/>
<path d="M237.396 137.434C236.302 137.021 235.084 136.919 233.894 137.024C233.653 136.976 233.397 136.975 233.152 136.959C232.868 136.941 232.585 136.922 232.3 136.902C231.713 136.861 231.125 136.829 230.537 136.79C229.345 136.71 228.148 136.644 226.958 136.537C226.916 136.534 226.907 136.6 226.95 136.605C228.128 136.74 229.301 136.89 230.482 136.997C231.09 137.052 231.698 137.108 232.307 137.147C232.45 137.157 232.599 137.171 232.749 137.186C232.569 137.222 232.389 137.26 232.213 137.305C231.265 137.546 230.351 137.89 229.473 138.303C228.997 138.38 228.524 138.499 228.056 138.598C227.308 138.756 226.563 138.929 225.82 139.103C224.352 139.448 222.899 139.836 221.442 140.216C221.394 140.229 221.416 140.293 221.464 140.282C222.92 139.962 224.383 139.669 225.842 139.358C226.55 139.206 227.26 139.057 227.968 138.901C228.151 138.861 228.337 138.824 228.524 138.786C226.895 139.685 225.431 140.838 224.226 142.136C223.023 143.432 222.065 144.85 221.24 146.359C221.218 146.398 221.279 146.435 221.304 146.396C222.282 144.861 223.511 143.415 224.918 142.143C224.892 142.216 224.865 142.287 224.839 142.36C224.727 142.678 224.615 142.998 224.504 143.318C224.28 143.956 224.053 144.593 223.841 145.235C223.826 145.278 223.898 145.292 223.915 145.251C224.169 144.633 224.411 144.01 224.655 143.388C224.774 143.083 224.894 142.778 225.014 142.473C225.076 142.314 225.136 142.155 225.195 141.997C225.213 141.948 225.235 141.899 225.253 141.851C225.932 141.262 226.646 140.71 227.397 140.213C228.389 139.556 229.472 139.002 230.606 138.563C230.585 138.657 230.566 138.751 230.545 138.841C230.486 139.088 230.424 139.335 230.367 139.582C230.248 140.096 230.137 140.61 230.026 141.124C229.798 142.173 229.657 143.235 229.438 144.285C229.428 144.328 229.501 144.345 229.512 144.301C229.783 143.246 230.132 142.208 230.395 141.151C230.526 140.622 230.658 140.094 230.781 139.563C230.839 139.316 230.893 139.068 230.95 138.82C230.981 138.681 231.017 138.543 231.034 138.405C231.145 138.366 231.252 138.32 231.363 138.283C232.949 137.757 234.702 137.374 236.393 137.666C238.011 137.944 239.397 138.917 240.032 140.28C240.087 140.398 240.294 140.324 240.264 140.203C239.937 138.902 238.725 137.934 237.396 137.434Z" fill="#263238"/>
<path d="M228.14 141.9C227.969 142.587 227.799 143.274 227.631 143.961C227.469 144.617 227.269 145.295 227.208 145.965C227.206 145.992 227.248 145.992 227.257 145.97C227.504 145.324 227.624 144.62 227.77 143.951C227.92 143.273 228.068 142.595 228.215 141.917C228.224 141.874 228.152 141.857 228.14 141.9Z" fill="#263238"/>
<path d="M222.293 143.646C221.523 143.996 220.777 144.394 219.973 144.681C219.922 144.699 219.954 144.766 220.004 144.744C220.779 144.397 221.58 144.092 222.312 143.673C222.33 143.662 222.313 143.638 222.293 143.646Z" fill="#263238"/>
<path d="M237.107 129.809C237.107 129.809 229.718 130.232 226.28 125.863C222.843 121.494 223.615 115.256 223.615 115.256C223.615 115.256 231.376 116.101 234.459 119.239C237.542 122.376 237.107 129.809 237.107 129.809Z" fill="#ED272C"/>
<path d="M240.575 136.346C240.319 135.636 240.002 134.937 239.703 134.24C239.416 133.572 239.109 132.91 238.784 132.256C238.12 130.92 237.388 129.617 236.569 128.352C236.048 127.547 235.489 126.766 234.914 125.996C234.902 125.878 234.876 125.761 234.856 125.643C234.822 125.438 234.789 125.232 234.753 125.028C234.68 124.608 234.598 124.19 234.52 123.771C234.35 122.857 234.139 121.948 233.977 121.032C233.97 120.989 233.893 120.99 233.901 121.033C234.05 121.937 234.151 122.847 234.292 123.751C234.362 124.196 234.426 124.641 234.501 125.084C234.529 125.245 234.557 125.405 234.586 125.565C233.456 124.091 232.242 122.671 230.93 121.314C230.753 121.131 230.571 120.953 230.391 120.773C230.372 120.722 230.345 120.673 230.323 120.621C230.268 120.495 230.215 120.369 230.162 120.242C230.053 119.979 229.947 119.716 229.842 119.452C229.634 118.933 229.448 118.409 229.291 117.877C229.278 117.834 229.206 117.854 229.218 117.897C229.367 118.44 229.524 118.984 229.702 119.52C229.788 119.78 229.882 120.036 229.984 120.29C230.002 120.333 230.02 120.376 230.037 120.418C229.092 119.495 228.107 118.606 227.112 117.727C227.077 117.696 227.025 117.745 227.059 117.777C228.99 119.549 230.697 121.507 232.296 123.527C232.115 123.475 231.93 123.434 231.749 123.403C231.18 123.304 230.606 123.231 230.031 123.166C228.827 123.029 227.627 122.892 226.428 122.723C226.38 122.716 226.361 122.781 226.409 122.789C227.554 122.992 228.689 123.223 229.826 123.457C230.363 123.568 230.901 123.662 231.441 123.757C231.891 123.837 232.308 123.96 232.739 124.088C232.858 124.242 232.982 124.393 233.1 124.547C233.642 125.254 234.163 125.976 234.673 126.704C234.421 126.659 234.17 126.616 233.919 126.572C233.348 126.473 232.775 126.38 232.202 126.295C231.075 126.129 229.947 125.954 228.833 125.726C228.785 125.717 228.766 125.783 228.815 125.793C229.944 126.031 231.064 126.308 232.185 126.576C232.726 126.705 233.272 126.824 233.819 126.932C234.092 126.986 234.366 127.04 234.64 127.091C234.758 127.113 234.869 127.14 234.972 127.142C236.052 128.712 237.066 130.318 238.002 131.957C238.415 132.677 238.811 133.406 239.196 134.138C239.591 134.891 239.929 135.658 240.293 136.422C240.365 136.575 240.635 136.512 240.575 136.346Z" fill="#263238"/>
<path d="M233.013 121.12C232.872 120.489 232.723 119.858 232.567 119.229C232.556 119.186 232.484 119.206 232.494 119.249C232.634 119.87 232.767 120.492 232.893 121.115C233.017 121.733 233.118 122.367 233.312 122.972C233.315 122.982 233.335 122.98 233.334 122.968C233.296 122.348 233.148 121.727 233.013 121.12Z" fill="#263238"/>
<path d="M228.702 120.935C228.359 120.783 227.997 120.658 227.64 120.535C227.453 120.47 227.266 120.405 227.08 120.338C226.985 120.304 226.889 120.27 226.794 120.236C226.693 120.199 226.569 120.172 226.482 120.113C226.427 120.075 226.391 120.163 226.446 120.171C226.555 120.187 226.662 120.246 226.762 120.287C226.856 120.324 226.949 120.362 227.042 120.399C227.222 120.471 227.402 120.543 227.581 120.615C227.938 120.756 228.301 120.898 228.673 121.002C228.716 121.014 228.743 120.954 228.702 120.935Z" fill="#263238"/>
<path d="M244.671 124.601C244.671 124.601 249.144 117.111 255.947 115.952C262.751 114.792 266.914 121.068 266.914 121.068C266.914 121.068 261.953 126.749 255.709 127.741C249.465 128.733 244.671 124.601 244.671 124.601Z" fill="#ED272C"/>
<path d="M260.506 119.308C258.744 119.091 256.938 119.116 255.171 119.364C255.273 119.315 255.374 119.264 255.474 119.218C255.98 118.989 256.481 118.756 256.984 118.522C258.028 118.034 259.084 117.516 260.178 117.123C260.229 117.105 260.198 117.04 260.147 117.061C259.083 117.505 257.979 117.878 256.912 118.318C256.377 118.538 255.853 118.767 255.333 119.014C254.998 119.174 254.626 119.324 254.296 119.515C252.802 119.79 251.342 120.216 249.972 120.803C250.256 120.526 250.54 120.25 250.823 119.972C251.457 119.35 252.08 118.697 252.777 118.129C252.814 118.1 252.758 118.053 252.722 118.082C252.009 118.662 251.258 119.199 250.568 119.801C250.233 120.094 249.912 120.397 249.6 120.709C249.444 120.864 249.288 121.025 249.14 121.191C246.181 122.633 243.664 124.809 242.004 127.44C241.06 128.935 240.401 130.552 240.019 132.233C240.009 132.276 240.077 132.3 240.091 132.256C241.025 129.429 242.789 126.772 245.092 124.668C247.592 122.386 250.749 120.737 254.207 119.94C256.26 119.467 258.383 119.303 260.498 119.428C260.584 119.433 260.591 119.318 260.506 119.308Z" fill="#263238"/>
<path opacity="0.1" d="M266.916 121.069C266.916 121.069 261.952 126.752 255.707 127.742C250.945 128.499 247.027 126.272 245.436 125.176L245.093 124.67C245.093 124.67 248.314 122.236 254.406 120.832C260.499 119.428 266.916 121.069 266.916 121.069Z" fill="black"/>
<path d="M256.555 116.638C256.038 116.921 255.525 117.202 255.044 117.532C254.571 117.857 254.131 118.211 253.732 118.608C253.697 118.644 253.752 118.689 253.791 118.658C254.242 118.307 254.696 117.955 255.165 117.622C255.626 117.294 256.094 116.97 256.596 116.696C256.638 116.674 256.597 116.615 256.555 116.638Z" fill="#263238"/>
<path d="M260.288 117.905C260.036 117.999 259.779 118.081 259.527 118.175C259.274 118.269 259.022 118.362 258.769 118.456C258.715 118.476 258.741 118.556 258.796 118.535C259.049 118.443 259.302 118.351 259.555 118.259C259.809 118.167 260.056 118.063 260.31 117.971C260.356 117.955 260.334 117.888 260.288 117.905Z" fill="#263238"/>
<path d="M243.779 134.026C243.779 134.026 244.973 141.455 251.204 144.054C257.435 146.653 265.032 144.054 265.032 144.054C265.032 144.054 262.045 127.98 243.779 134.026Z" fill="#ED272C"/>
<path d="M260.739 139.222C260.164 139.163 259.593 139.075 259.024 138.982C258.744 138.936 258.465 138.889 258.186 138.84C258.045 138.815 257.897 138.785 257.749 138.762C257.581 138.621 257.416 138.479 257.244 138.343C256.065 137.411 254.786 136.585 253.433 135.866C252.697 135.475 251.933 135.124 251.149 134.814C251.188 134.815 251.227 134.817 251.266 134.819C251.95 134.845 252.634 134.87 253.317 134.899C254.685 134.955 256.052 134.982 257.419 135.062C257.468 135.065 257.466 134.996 257.417 134.993C256.045 134.91 254.681 134.775 253.311 134.669C252.646 134.618 251.982 134.564 251.318 134.51C250.976 134.483 250.633 134.457 250.291 134.43C250.204 134.423 250.116 134.414 250.029 134.405C249.673 134.286 249.315 134.174 248.953 134.073C247.249 133.599 245.422 133.411 243.675 133.812C242.107 134.172 240.543 135.093 240.137 136.575C240.123 136.626 240.212 136.661 240.236 136.609C240.821 135.371 242.354 134.748 243.737 134.49C244.668 134.317 245.62 134.327 246.559 134.441C246.597 134.822 246.757 135.213 246.873 135.564C247.046 136.087 247.216 136.611 247.392 137.132C247.746 138.176 248.135 139.209 248.479 140.255C248.493 140.297 248.565 140.278 248.553 140.235C248.264 139.192 248.019 138.14 247.739 137.095C247.602 136.582 247.458 136.07 247.316 135.558C247.225 135.23 247.149 134.842 247.002 134.502C247.55 134.588 248.092 134.705 248.619 134.844C249.576 135.096 250.52 135.409 251.443 135.771C251.535 136.301 251.666 136.826 251.802 137.348C251.973 138.004 252.162 138.654 252.394 139.295C252.408 139.335 252.473 139.317 252.464 139.276C252.455 139.235 252.445 139.195 252.436 139.155C252.436 139.154 252.434 139.153 252.434 139.153C252.295 138.546 252.145 137.94 252.002 137.333C251.887 136.844 251.781 136.353 251.662 135.864C252.437 136.175 253.197 136.516 253.934 136.895C253.949 137.047 253.99 137.202 254.014 137.34C254.06 137.594 254.111 137.848 254.163 138.102C254.28 138.675 254.408 139.246 254.561 139.813C254.856 140.903 255.186 141.994 255.632 143.043C255.623 143.056 255.619 143.073 255.633 143.087C255.645 143.099 255.657 143.112 255.668 143.124C255.695 143.152 255.74 143.119 255.732 143.089C255.443 141.988 255.114 140.896 254.844 139.791C254.71 139.239 254.574 138.687 254.45 138.134C254.388 137.857 254.332 137.579 254.274 137.302C254.257 137.224 254.245 137.139 254.231 137.054C255.072 137.5 255.886 137.982 256.657 138.504C257.986 139.404 259.26 140.431 260.371 141.544C260.415 141.589 260.503 141.526 260.462 141.478C259.987 140.918 259.514 140.371 258.977 139.853C258.664 139.552 258.338 139.261 258.006 138.977C258.041 138.982 258.077 138.988 258.11 138.993C258.401 139.037 258.694 139.076 258.987 139.111C259.563 139.18 260.141 139.23 260.719 139.29C260.769 139.293 260.788 139.227 260.739 139.222Z" fill="#263238"/>
<path d="M256.36 141.74C256.35 141.675 256.338 141.611 256.324 141.547C256.306 141.465 256.262 141.387 256.249 141.304C256.249 141.302 256.247 141.302 256.247 141.301C256.119 140.805 256.011 140.305 255.91 139.803C255.903 139.768 255.841 139.778 255.843 139.813C255.87 140.476 256.053 141.135 256.317 141.752C256.325 141.772 256.364 141.77 256.361 141.746C256.36 141.744 256.36 141.742 256.36 141.74Z" fill="#263238"/>
<path d="M251.144 141.621C251.143 141.6 251.125 141.59 251.107 141.589C250.933 140.932 250.764 140.273 250.613 139.611C250.534 139.262 250.452 138.915 250.378 138.566C250.338 138.377 250.299 138.19 250.262 138.001C250.229 137.838 250.214 137.665 250.128 137.518C250.113 137.493 250.063 137.498 250.058 137.528C250.006 137.84 250.15 138.218 250.214 138.524C250.291 138.887 250.369 139.249 250.458 139.61C250.639 140.342 250.844 141.073 251.075 141.794C251.088 141.835 251.161 141.825 251.158 141.782C251.153 141.729 251.148 141.675 251.144 141.621Z" fill="#263238"/>
<path d="M260.171 137.082C259.033 136.942 257.896 136.794 256.755 136.67C256.707 136.665 256.688 136.731 256.737 136.737C257.873 136.888 259.013 137.014 260.153 137.149C260.201 137.154 260.22 137.087 260.171 137.082Z" fill="#263238"/>
<path d="M240.586 116.601C240.586 116.601 236.774 101.604 254.747 95.5352C254.747 95.5352 259.726 115.276 240.586 116.601Z" fill="#ED272C"/>
<path d="M244.466 108.096C244.534 108.058 244.599 108.021 244.659 107.991C244.999 107.824 245.336 107.652 245.675 107.482L247.759 106.437C249.131 105.749 250.485 105.033 251.866 104.36C251.91 104.339 251.869 104.281 251.826 104.302C250.443 104.976 249.034 105.608 247.642 106.267L245.582 107.244C245.302 107.376 245.021 107.509 244.741 107.643C245.34 106.623 245.981 105.623 246.684 104.661C247.624 103.377 248.652 102.153 249.725 100.956C249.774 100.901 249.693 100.831 249.636 100.88C248.051 102.24 246.679 103.795 245.48 105.448C245.482 105.395 245.483 105.342 245.485 105.292C245.506 104.919 245.517 104.545 245.523 104.172C245.535 103.44 245.495 102.707 245.52 101.976C245.521 101.932 245.445 101.934 245.443 101.978C245.409 102.698 245.313 103.416 245.267 104.136C245.245 104.496 245.227 104.855 245.215 105.215C245.209 105.409 245.188 105.631 245.196 105.843C244.826 106.371 244.47 106.907 244.134 107.45C243.535 108.418 242.999 109.431 242.527 110.47C242.509 110.096 242.485 109.724 242.46 109.35C242.406 108.529 242.294 107.712 242.255 106.89C242.254 106.846 242.178 106.847 242.179 106.892C242.198 107.713 242.155 108.535 242.184 109.356C242.198 109.767 242.212 110.178 242.242 110.587C242.253 110.738 242.262 110.892 242.273 111.045C241.701 112.391 241.24 113.776 240.916 115.167C240.566 116.669 240.423 118.174 240.247 119.696C240.246 119.707 240.265 119.706 240.266 119.695C240.423 118.338 240.807 116.968 241.22 115.657C241.443 114.949 241.677 114.245 241.93 113.546C242.678 113.23 243.394 112.836 244.116 112.478C244.865 112.105 245.621 111.741 246.372 111.371C247.87 110.634 249.367 109.883 250.915 109.232C250.96 109.213 250.919 109.155 250.875 109.173C249.307 109.809 247.728 110.415 246.19 111.108C245.424 111.453 244.671 111.821 243.924 112.199C243.3 112.514 242.659 112.83 242.062 113.192C242.237 112.726 242.418 112.261 242.617 111.801C243.164 110.541 243.78 109.302 244.466 108.096Z" fill="#263238"/>
<path d="M242.951 104.667C242.947 104.623 242.871 104.625 242.874 104.669C242.939 105.524 242.971 106.38 243.072 107.233C243.078 107.281 243.159 107.28 243.156 107.231C243.123 106.373 243.021 105.523 242.951 104.667Z" fill="#263238"/>
<path d="M251.568 107.532C250.442 107.938 249.308 108.324 248.189 108.744C248.158 108.756 248.172 108.801 248.205 108.79C249.34 108.409 250.461 107.993 251.591 107.598C251.636 107.582 251.614 107.515 251.568 107.532Z" fill="#263238"/>
<path d="M253.276 100.615C252.176 101.072 251.11 101.578 250.08 102.152C250.027 102.181 250.077 102.253 250.13 102.225C251.172 101.679 252.234 101.155 253.316 100.674C253.361 100.653 253.32 100.597 253.276 100.615Z" fill="#263238"/>
<path d="M253.005 149.031H227.085V173.526H253.005V149.031Z" fill="#37474F"/>
<path d="M226.627 157.699H225.301V199.656H226.627V157.699Z" fill="#263238"/>
<path d="M254.649 157.699H253.323V199.656H254.649V157.699Z" fill="#263238"/>
<path d="M241.344 157.699H240.018V199.656H241.344V157.699Z" fill="#263238"/>
<path d="M253.986 171.957H225.965V175.348H253.986V171.957Z" fill="#263238"/>
<path d="M60.1638 196.831C60.1638 207.636 69.4879 216.484 81.324 217.269V217.327H210.798C225.64 217.327 237.667 206.544 237.667 193.237C237.667 180.692 226.972 170.376 213.31 169.25C212.536 147.446 192.581 129.977 168.072 129.977C148.56 129.977 131.929 141.043 125.573 156.557C121.958 154.919 117.885 154.009 113.56 154.009C99.275 154.009 87.5914 163.995 86.7412 176.609C85.5359 176.427 84.293 176.336 83.0239 176.336C70.4014 176.336 60.1638 185.514 60.1638 196.831Z" fill="#2A2A2A"/>
<g opacity="0.1">
<g filter="url(#filter0_d_2068_3573)">
<path d="M60.1638 196.831C60.1638 207.636 69.4879 216.484 81.324 217.269V217.327H210.798C225.64 217.327 237.667 206.544 237.667 193.237C237.667 180.692 226.972 170.376 213.31 169.25C212.536 147.446 192.581 129.977 168.072 129.977C148.56 129.977 131.929 141.043 125.573 156.557C121.958 154.919 117.885 154.009 113.56 154.009C99.275 154.009 87.5914 163.995 86.7412 176.609C85.5359 176.427 84.293 176.336 83.0239 176.336C70.4014 176.336 60.1638 185.514 60.1638 196.831Z" fill="#080607"/>
</g>
</g>
<g filter="url(#filter1_d_2068_3573)">
<path d="M52.3328 196.831C52.3328 207.636 61.6568 216.484 73.4929 217.269V217.327H202.967C217.81 217.327 229.835 206.544 229.835 193.237C229.835 180.692 219.141 170.376 205.478 169.25C204.705 147.446 184.749 129.977 160.24 129.977C140.729 129.977 124.097 141.043 117.742 156.557C114.127 154.919 110.054 154.009 105.728 154.009C91.4433 154.009 79.7598 163.995 78.9095 176.609C77.7043 176.427 76.4608 176.336 75.1923 176.336C62.5703 176.336 52.3328 185.514 52.3328 196.831Z" fill="#ED272C"/>
</g>
<path d="M160.329 233.889V179.85H136.99V226.068C143.613 230.467 151.629 233.28 160.329 233.889Z" fill="white"/>
<path d="M172.319 179.848H125L148.659 153.499L172.319 179.848Z" fill="white"/>
<path d="M98.5205 102.607H54.4492V128.154H98.5205V102.607Z" fill="#ED272C"/>
<path d="M68.3379 99.9609H54.4492V102.607H69.136L68.3379 99.9609Z" fill="#ED272C"/>
<g opacity="0.1">
<path d="M98.5205 102.607H54.4492V128.154H98.5205V102.607Z" fill="black"/>
<path d="M68.3379 99.9609H54.4492V102.607H69.136L68.3379 99.9609Z" fill="black"/>
</g>
<path d="M86.1044 116.502L57.4414 116.488L57.46 83.5L78.7425 83.5099L86.1195 89.7988L86.1044 116.502Z" fill="#ED272C"/>
<path opacity="0.6" d="M86.1044 116.502L57.4414 116.488L57.46 83.5L78.7425 83.5099L86.1195 89.7988L86.1044 116.502Z" fill="white"/>
<path d="M78.7426 83.5078L86.1196 89.7967L78.7385 89.7936L78.7426 83.5078Z" fill="#ED272C"/>
<path opacity="0.4" d="M78.7426 83.5078L86.1196 89.7967L78.7385 89.7936L78.7426 83.5078Z" fill="white"/>
<path d="M60.2525 89.8853L76.1892 89.8926L76.1897 89.0455L60.253 89.0382L60.2525 89.8853Z" fill="white"/>
<path d="M60.2513 92.022L76.188 92.0293L76.1885 91.1822L60.2518 91.1749L60.2513 92.022Z" fill="white"/>
<path d="M60.2499 94.1607L76.1865 94.168L76.187 93.3209L60.2503 93.3136L60.2499 94.1607Z" fill="white"/>
<path d="M60.249 96.2979L83.5986 96.3086L83.5991 95.4615L60.2495 95.4508L60.249 96.2979Z" fill="white"/>
<path d="M60.2478 98.4367L83.5974 98.4473L83.5979 97.6002L60.2483 97.5896L60.2478 98.4367Z" fill="white"/>
<path d="M60.2466 100.575L83.5962 100.586L83.5967 99.7389L60.247 99.7283L60.2466 100.575Z" fill="white"/>
<path d="M60.2453 102.714L83.595 102.725L83.5954 101.878L60.2458 101.867L60.2453 102.714Z" fill="white"/>
<path d="M60.2439 104.851L83.5935 104.861L83.594 104.014L60.2443 104.004L60.2439 104.851Z" fill="white"/>
<path d="M60.2426 106.989L83.5923 107L83.5928 106.153L60.2431 106.142L60.2426 106.989Z" fill="white"/>
<path d="M60.2414 109.128L83.5911 109.139L83.5915 108.292L60.2419 108.281L60.2414 109.128Z" fill="white"/>
<path d="M60.2407 111.265L83.5903 111.275L83.5908 110.428L60.2412 110.418L60.2407 111.265Z" fill="white"/>
<path d="M60.2395 113.403L83.5891 113.414L83.5896 112.567L60.24 112.556L60.2395 113.403Z" fill="white"/>
<path d="M79.3573 121.775L111.557 112.275L104.446 92.9746L72.2471 102.474L79.3573 121.775Z" fill="#E9E9E9"/>
<path d="M80.2521 120.179L109.779 111.468L103.551 94.5723L74.0247 103.283L80.2521 120.179Z" fill="white"/>
<path d="M78.6426 107.76C79.2267 109.351 81.1378 110.216 82.912 109.693C84.6863 109.169 85.6514 107.455 85.0673 105.864C84.4833 104.274 82.5716 103.408 80.7974 103.932C79.0237 104.456 78.0586 106.17 78.6426 107.76Z" fill="#DBDBDB"/>
<path d="M89.4302 117.501L109.769 111.5L95.0637 102.143L89.4302 117.501Z" fill="#E9E9E9"/>
<path d="M81.4592 119.859L98.2514 114.905L86.902 109.334L81.4592 119.859Z" fill="#E9E9E9"/>
<path d="M98.4174 128.151H54.3461L51.3145 104.725H95.3858L98.4174 128.151Z" fill="#ED272C"/>
<path d="M64.8893 102.299H51L51.3144 104.725H66.0011L64.8893 102.299Z" fill="#ED272C"/>
<path d="M62.2334 118.483C62.2334 120.002 63.5442 121.246 65.2076 121.356V121.364H83.4069C85.4931 121.364 87.1838 119.848 87.1838 117.978C87.1838 116.215 85.6805 114.764 83.7601 114.606C83.6511 111.541 80.8462 109.086 77.401 109.086C74.6582 109.086 72.3208 110.642 71.427 112.822C70.9189 112.592 70.3464 112.464 69.7386 112.464C67.7306 112.464 66.0881 113.867 65.9686 115.641C65.7992 115.615 65.6247 115.602 65.446 115.602C63.6724 115.602 62.2334 116.892 62.2334 118.483Z" fill="white"/>
<path d="M76.966 123.805V116.209H73.6855V122.705C74.6164 123.324 75.7434 123.719 76.966 123.805Z" fill="#ED272C"/>
<path d="M78.6514 116.205H72L75.3257 112.501L78.6514 116.205Z" fill="#ED272C"/>
<defs>
<filter id="filter0_d_2068_3573" x="56.1638" y="129.977" width="185.503" height="95.3496" filterUnits="userSpaceOnUse" color-interpolation-filters="sRGB">
<feFlood flood-opacity="0" result="BackgroundImageFix"/>
<feColorMatrix in="SourceAlpha" type="matrix" values="0 0 0 0 0 0 0 0 0 0 0 0 0 0 0 0 0 0 127 0" result="hardAlpha"/>
<feOffset dy="4"/>
<feGaussianBlur stdDeviation="2"/>
<feComposite in2="hardAlpha" operator="out"/>
<feColorMatrix type="matrix" values="0 0 0 0 0 0 0 0 0 0 0 0 0 0 0 0 0 0 0.25 0"/>
<feBlend mode="normal" in2="BackgroundImageFix" result="effect1_dropShadow_2068_3573"/>
<feBlend mode="normal" in="SourceGraphic" in2="effect1_dropShadow_2068_3573" result="shape"/>
</filter>
<filter id="filter1_d_2068_3573" x="48.3328" y="129.977" width="185.503" height="95.3496" filterUnits="userSpaceOnUse" color-interpolation-filters="sRGB">
<feFlood flood-opacity="0" result="BackgroundImageFix"/>
<feColorMatrix in="SourceAlpha" type="matrix" values="0 0 0 0 0 0 0 0 0 0 0 0 0 0 0 0 0 0 127 0" result="hardAlpha"/>
<feOffset dy="4"/>
<feGaussianBlur stdDeviation="2"/>
<feComposite in2="hardAlpha" operator="out"/>
<feColorMatrix type="matrix" values="0 0 0 0 0 0 0 0 0 0 0 0 0 0 0 0 0 0 0.15 0"/>
<feBlend mode="normal" in2="BackgroundImageFix" result="effect1_dropShadow_2068_3573"/>
<feBlend mode="normal" in="SourceGraphic" in2="effect1_dropShadow_2068_3573" result="shape"/>
</filter>
</defs>
</svg>
