<svg width="10" height="10" viewBox="0 0 10 10" fill="none" xmlns="http://www.w3.org/2000/svg">
<g clip-path="url(#clip0_2629_8637)">
<path d="M3.65855 4.9359C3.81568 5.16328 3.76871 4.97381 3.76871 9.50615C3.76871 9.91174 4.23145 10.1439 4.55758 9.90127C5.95119 8.85055 6.22963 8.75955 6.22963 8.26809C6.22963 4.96527 6.19113 5.15102 6.33978 4.9359L8.60285 1.85547H1.39551L3.65855 4.9359Z" fill="#ED272C"/>
<path d="M9.45789 0.251172C9.37703 0.0962891 9.21844 0 9.04385 0H0.954863C0.577813 0 0.355957 0.425332 0.572246 0.734375C0.574023 0.737344 0.547695 0.701309 0.965215 1.26953H9.03348C9.38928 0.785293 9.62711 0.576074 9.45789 0.251172Z" fill="#ED272C"/>
</g>
<defs>
<clipPath id="clip0_2629_8637">
<rect width="10" height="10" fill="white"/>
</clipPath>
</defs>
</svg>
