<svg width="20" height="20" viewBox="0 0 20 20" fill="none" xmlns="http://www.w3.org/2000/svg">
<path d="M15.8838 5.88379C15.7235 5.88379 15.5634 5.89309 15.4046 5.9116C14.4839 3.76379 12.3721 2.35352 10 2.35352C7.62793 2.35352 5.51613 3.76379 4.59543 5.9116C4.43664 5.89309 4.27652 5.88379 4.11621 5.88379C1.84652 5.88379 0 7.73031 0 10C0 12.2697 1.84652 14.1162 4.11621 14.1162H7.06543V12.9221C6.48125 12.8514 5.95746 12.4862 5.69496 11.9516C5.40172 11.3546 5.47504 10.6286 5.88176 10.1021L8.60891 6.57188C8.93934 6.1441 9.45934 5.88867 9.99996 5.88867C10.5406 5.88867 11.0606 6.1441 11.3911 6.57191L14.1182 10.1021C14.5249 10.6286 14.5982 11.3546 14.3049 11.9517C14.0424 12.4862 13.5187 12.8514 12.9345 12.9221V14.1162H15.8837C18.1535 14.1162 20 12.2697 20 10C20 7.73031 18.1535 5.88379 15.8838 5.88379Z" fill="white"/>
<path d="M12.7271 11.7627C12.9505 11.7627 13.1545 11.6356 13.253 11.435C13.3515 11.2345 13.3273 10.9954 13.1907 10.8186L10.4636 7.28828C10.3526 7.14465 10.1814 7.06055 9.99988 7.06055C9.8184 7.06055 9.64715 7.14465 9.53621 7.28828L6.80902 10.8186C6.67242 10.9954 6.64828 11.2345 6.74676 11.435C6.84524 11.6356 7.04926 11.7627 7.2727 11.7627H8.23719V17.0605C8.23719 17.3841 8.49953 17.6465 8.82313 17.6465H11.1766C11.5002 17.6465 11.7626 17.3841 11.7626 17.0605V11.7627H12.7271Z" fill="white"/>
</svg>
