<svg width="16" height="16" viewBox="0 0 16 16" fill="none" xmlns="http://www.w3.org/2000/svg">
<g clip-path="url(#clip0_2973_69342)">
<path fill-rule="evenodd" clip-rule="evenodd" d="M10.7068 7.2934C10.894 7.4809 10.9992 7.73507 10.9992 8.00007C10.9992 8.26507 10.894 8.51923 10.7068 8.70673L6.93609 12.4787C6.74849 12.6662 6.49409 12.7715 6.22885 12.7715C5.96361 12.7714 5.70926 12.666 5.52176 12.4784C5.33425 12.2908 5.22894 12.0364 5.229 11.7712C5.22907 11.5059 5.33449 11.2516 5.52209 11.0641L8.58609 8.00007L5.52209 4.93607C5.33984 4.74755 5.23892 4.49499 5.24108 4.2328C5.24323 3.9706 5.34828 3.71973 5.5336 3.53424C5.71893 3.34874 5.96969 3.24345 6.23189 3.24105C6.49408 3.23865 6.74673 3.33933 6.93542 3.5214L10.7074 7.29273L10.7068 7.2934Z" fill="#6C757D"/>
</g>
<defs>
<clipPath id="clip0_2973_69342">
<rect width="16" height="16" fill="white" transform="matrix(0 -1 1 0 0 16)"/>
</clipPath>
</defs>
</svg>
