<svg width="67" height="61" viewBox="0 0 67 61" fill="none" xmlns="http://www.w3.org/2000/svg">
<path d="M24.6948 27.7724C32.3649 27.7724 38.5829 21.5553 38.5829 13.8862C38.5829 6.21707 32.3649 0 24.6948 0C17.0246 0 10.8066 6.21707 10.8066 13.8862C10.8066 21.5553 17.0246 27.7724 24.6948 27.7724Z" fill="#D0D5DD"/>
<path d="M24.7038 32.764C28.4089 32.764 31.8268 31.7164 34.5683 29.9511C36.6783 28.5917 39.4546 28.8261 41.3121 30.5141C46.2949 35.0408 49.4189 41.5751 49.4077 48.8361L49.402 51.8285C49.3964 54.9218 46.8871 57.4263 43.7934 57.4263H5.61428C2.52055 57.4263 0.0112474 54.9218 0.00563876 51.8285L3.00966e-05 48.8361C-0.0111872 41.5739 3.11395 35.0396 8.09554 30.5141C9.95312 28.8261 12.7294 28.5928 14.8394 29.9511C17.5809 31.7164 20.9977 32.764 24.7038 32.764Z" fill="#D0D5DD"/>
<path d="M53.7121 60.9987C61.0186 60.9987 66.9417 55.0764 66.9417 47.7708C66.9417 40.4653 61.0186 34.543 53.7121 34.543C46.4055 34.543 40.4824 40.4653 40.4824 47.7708C40.4824 55.0764 46.4055 60.9987 53.7121 60.9987Z" fill="#ADB5BD"/>
<path d="M59.5575 46.0858H55.393V41.9219H52.0278V46.0858H47.8633V49.4506H52.0278V53.6145H55.393V49.4506H59.5575V46.0858Z" fill="#F2F6FC"/>
</svg>
