<svg width="30" height="30" viewBox="0 0 30 30" fill="none" xmlns="http://www.w3.org/2000/svg">
<path d="M17.6723 27.9492H9.9248C11.7892 30.6805 15.8053 30.6843 17.6723 27.9492Z" fill="#080607"/>
<path d="M23.6035 18.11C19.1706 18.6476 15.3222 15.1757 15.3222 10.7815C15.3222 8.3767 16.4777 6.23679 18.2631 4.88792C16.9236 4.19825 15.406 3.80859 13.7987 3.80859C8.40324 3.80859 4.01326 8.19857 4.01326 13.5941V17.6659C4.01326 19.0376 3.47886 20.3267 2.50911 21.2964C1.96768 21.8385 1.66943 22.5586 1.66943 23.3244C1.66943 24.9059 2.95619 26.1921 4.5371 26.1921H23.0603C24.6412 26.1921 25.928 24.9059 25.928 23.3244C25.928 22.5586 25.6297 21.8385 25.0883 21.2964C24.224 20.4322 23.7055 19.3142 23.6035 18.11Z" fill="#080607"/>
<path d="M16.5267 2.37664C16.3422 1.03597 15.1896 0 13.7985 0C12.4075 0 11.2549 1.03597 11.0703 2.37664C12.8568 1.94227 14.739 1.94197 16.5267 2.37664Z" fill="#080607"/>
<path d="M22.7053 5.15625C19.5986 5.15625 17.0801 7.67475 17.0801 10.7814C17.0801 13.8881 19.5986 16.4066 22.7053 16.4066C25.8119 16.4066 28.3304 13.8881 28.3304 10.7814C28.3304 7.67475 25.8119 5.15625 22.7053 5.15625ZM23.5842 12.6565C23.5842 13.1419 23.1907 13.5354 22.7053 13.5354C22.2198 13.5354 21.8263 13.1419 21.8263 12.6565V10.2523C21.4832 10.2751 21.1448 10.0946 20.9816 9.76819C20.7645 9.334 20.9405 8.80605 21.3747 8.58895L22.3122 8.12019C22.8948 7.82897 23.5842 8.25226 23.5842 8.90637V12.6565Z" fill="#ED272C"/>
</svg>
