<svg width="103" height="103" viewBox="0 0 103 103" fill="none" xmlns="http://www.w3.org/2000/svg">
<g clip-path="url(#clip0_2973_68170)">
<path d="M86.9175 54.9104H50.9661C49.4924 54.9104 48.2976 53.7155 48.2976 52.2419V15.883C48.2976 14.2336 46.9669 12.8817 45.3175 12.8809C20.5157 12.8691 0.329119 33.0082 0.264073 57.7922C0.198827 82.6422 20.4456 102.944 45.2957 102.944C70.1275 102.944 90.3271 82.7443 90.3271 57.9125V57.8568C90.3241 56.0568 88.6501 54.6466 86.9175 54.9104Z" fill="#CED4DA"/>
<path d="M57.7045 0.470703C56.0451 0.470703 54.7024 1.81345 54.7024 3.47281V45.5023C54.7024 47.1617 56.0451 48.5044 57.7045 48.5044H99.734C101.393 48.5044 102.736 47.1617 102.736 45.5023C102.736 20.6705 82.5363 0.470703 57.7045 0.470703Z" fill="#CED4DA"/>
</g>
<defs>
<clipPath id="clip0_2973_68170">
<rect width="102.472" height="102.472" fill="white" transform="translate(0.264038 0.472656)"/>
</clipPath>
</defs>
</svg>
