<svg width="45" height="45" viewBox="0 0 45 45" fill="none" xmlns="http://www.w3.org/2000/svg">
<rect width="45" height="45" rx="5" fill="#FDEFAE"/>
<g clip-path="url(#clip0_1572_5174)">
<path d="M30.7108 17.4646V30.6966C30.5383 31.0435 30.275 31.3266 29.9575 31.5229C29.6402 31.7194 29.2694 31.8291 28.8818 31.8291H12.0225C11.3681 31.8291 10.8089 31.4292 10.5943 30.87C10.5333 30.7116 10.5 30.5405 10.5 30.3618V14.6521C10.5 13.8618 11.1667 13.2188 11.9865 13.2188H17.6726C18.1615 13.2188 18.6191 13.4504 18.8961 13.8384L20.4604 16.0256C20.4637 16.028 20.4725 16.0313 20.4853 16.0313H29.2249C30.0443 16.0313 30.7108 16.6743 30.7108 17.4646Z" fill="#FACE00"/>
<path d="M30.7109 17.4646V30.6965C30.5384 31.0435 30.2751 31.3266 29.9576 31.5229C29.6403 31.7194 29.2695 31.8291 28.8818 31.8291H22.501V16.0312H29.225C30.0444 16.0312 30.7109 16.6743 30.7109 17.4646Z" fill="#FFB129"/>
<path d="M34.305 23.4791L30.7108 30.6973C30.5383 31.0443 30.275 31.3274 29.9575 31.5237C29.6402 31.7202 29.2694 31.8298 28.8817 31.8298H12.0225C11.368 31.8298 10.8088 31.4299 10.5942 30.8707L14.7498 21.8764C15.0728 21.185 15.7904 20.7402 16.5794 20.7402H32.4964C33.2113 20.7402 33.8558 21.0918 34.2205 21.6799C34.5604 22.2294 34.5922 22.902 34.305 23.4791Z" fill="#FFB129"/>
<path d="M34.3051 23.4791L30.7109 30.6973C30.5384 31.0443 30.2751 31.3274 29.9576 31.5237C29.6403 31.7202 29.2695 31.8298 28.8818 31.8298H22.501V20.7402H32.4965C33.2114 20.7402 33.8559 21.0918 34.2207 21.6799C34.5605 22.2294 34.5924 22.902 34.3051 23.4791Z" fill="#FF6D40"/>
</g>
<defs>
<clipPath id="clip0_1572_5174">
<rect width="24" height="24" fill="white" transform="translate(10.5 10.5)"/>
</clipPath>
</defs>
</svg>
