<svg width="45" height="45" viewBox="0 0 45 45" fill="none" xmlns="http://www.w3.org/2000/svg">
<rect width="45" height="45" rx="5" fill="#FFE4A2"/>
<g clip-path="url(#clip0_1572_5209)">
<path d="M25.763 22.5C25.763 22.9111 25.9108 23.1671 26.004 23.2313C28.5081 24.9651 30.0385 27.2737 30.4051 29.8275C30.4622 30.225 30.4913 30.6286 30.4913 31.0369L30.4917 34.5H14.5542V31.0369C14.5542 30.6286 14.5833 30.225 14.6404 29.8275C15.0076 27.2737 16.538 24.9651 19.0416 23.2317C19.1349 23.1671 19.2831 22.9111 19.2831 22.5C19.2831 22.0889 19.1349 21.8329 19.0416 21.7683C16.1479 19.7648 14.5542 16.9931 14.5542 13.9631V10.5H30.4917V13.9631C30.4913 16.9931 28.8979 19.7648 26.0045 21.7683C25.9108 21.8329 25.763 22.0889 25.763 22.5Z" fill="#F1F2F2"/>
<path d="M25.763 22.5C25.763 22.9111 25.9108 23.1671 26.004 23.2313C28.5081 24.9651 30.0385 27.2737 30.4051 29.8275C30.4622 30.225 30.4913 30.6286 30.4913 31.0369L30.4917 34.5H22.5229V10.5H30.4917V13.9631C30.4913 16.9931 28.8979 19.7648 26.0045 21.7683C25.9108 21.8329 25.763 22.0889 25.763 22.5Z" fill="#D1D4D5"/>
<path d="M30.4917 34.4993H14.5542V31.0362C14.5542 30.6279 14.5833 30.2243 14.6404 29.8268L20.9475 26.0753C21.4256 25.7664 21.9745 25.6117 22.5229 25.6113C23.0715 25.6108 23.6199 25.7651 24.0986 26.074L30.4051 29.8268C30.4622 30.2243 30.4913 30.6279 30.4913 31.0362L30.4917 34.4993Z" fill="#FFCC4E"/>
<path d="M30.4913 31.0362L30.4917 34.4993H22.5229V25.6113C23.0715 25.6108 23.6199 25.7651 24.0986 26.074L30.4051 29.8268C30.4622 30.2243 30.4913 30.6279 30.4913 31.0362Z" fill="#FCAD2D"/>
<path d="M32.4366 33.7969C32.4366 34.1851 32.1216 34.5 31.7335 34.5H13.3125C12.924 34.5 12.6094 34.1851 12.6094 33.7969C12.6094 33.4083 12.924 33.0938 13.3125 33.0938H31.7335C32.1216 33.0938 32.4366 33.4083 32.4366 33.7969Z" fill="#2D475C"/>
<path d="M32.4366 11.2031C32.4366 11.5913 32.1216 11.9062 31.7335 11.9062H13.3125C12.924 11.9062 12.6094 11.5913 12.6094 11.2031C12.6094 10.8146 12.924 10.5 13.3125 10.5H31.7335C32.1216 10.5 32.4366 10.8146 32.4366 11.2031Z" fill="#2D475C"/>
<path d="M32.4366 11.2031C32.4366 11.5913 32.1217 11.9062 31.7335 11.9062H22.5229V10.5H31.7335C32.1217 10.5 32.4366 10.8146 32.4366 11.2031Z" fill="#223C4D"/>
<path d="M32.4366 33.7969C32.4366 34.1851 32.1217 34.5 31.7335 34.5H22.5112V33.0938H31.7335C32.1217 33.0938 32.4366 33.4083 32.4366 33.7969Z" fill="#223C4D"/>
</g>
<defs>
<clipPath id="clip0_1572_5209">
<rect width="24" height="24" fill="white" transform="translate(10.5 10.5)"/>
</clipPath>
</defs>
</svg>
