<svg width="45" height="45" viewBox="0 0 45 45" fill="none" xmlns="http://www.w3.org/2000/svg">
<rect width="45" height="45" rx="5" fill="#CFE3FF"/>
<g clip-path="url(#clip0_1572_5225)">
<path d="M16.0547 23.9844C14.7621 23.9844 13.6719 22.9332 13.6719 21.6406C13.6719 20.3481 14.7621 19.2969 16.0547 19.2969C17.3473 19.2969 18.3984 20.3481 18.3984 21.6406C18.3984 22.9332 17.3473 23.9844 16.0547 23.9844Z" fill="#6F7482"/>
<path d="M16.0547 23.9844C14.113 23.9844 12.5 25.5583 12.5 27.5V28.6719H17.2266L19.0564 27.0016L18.6266 25.1183C17.9843 24.425 17.0741 23.9844 16.0547 23.9844Z" fill="#6F7482"/>
<path d="M28.9453 23.9844C27.6527 23.9844 26.6016 22.9332 26.6016 21.6406C26.6016 20.3481 27.6527 19.2969 28.9453 19.2969C30.2379 19.2969 31.2891 20.3481 31.2891 21.6406C31.2891 22.9332 30.2379 23.9844 28.9453 23.9844Z" fill="#ED272C"/>
<path d="M28.9453 23.9844C27.9258 23.9844 27.0157 24.425 26.3734 25.1183L26.0298 27.2208L27.7734 28.6719H32.5V27.5C32.5 25.5583 30.887 23.9844 28.9453 23.9844Z" fill="#ED272C"/>
<path d="M22.5 16.3281C20.5664 16.3281 18.9844 17.9492 18.9844 19.8828C18.9844 21.8164 20.5664 23.3984 22.5 23.3984C24.4336 23.3984 26.0156 21.8164 26.0156 19.8828C26.0156 17.9492 24.4336 16.3281 22.5 16.3281Z" fill="#76E2F8"/>
<path d="M27.7734 28.6719H17.2266C17.2266 27.3007 17.7657 26.0585 18.6211 25.121C19.5938 24.0665 20.9648 23.3984 22.5 23.3984C24.0352 23.3984 25.4062 24.0665 26.3789 25.121C27.2343 26.0585 27.7734 27.3007 27.7734 28.6719Z" fill="#76E2F8"/>
<path d="M22.5 23.3984V16.3281C24.4336 16.3281 26.0156 17.9492 26.0156 19.8828C26.0156 21.8164 24.4336 23.3984 22.5 23.3984Z" fill="#24C4EA"/>
<path d="M27.7734 28.6719H22.5V23.3984C24.0352 23.3984 25.4062 24.0665 26.3789 25.121C27.2343 26.0585 27.7734 27.3007 27.7734 28.6719Z" fill="#24C4EA"/>
</g>
<defs>
<clipPath id="clip0_1572_5225">
<rect width="20" height="20" fill="white" transform="translate(12.5 12.5)"/>
</clipPath>
</defs>
</svg>
