<svg width="45" height="45" viewBox="0 0 45 45" fill="none" xmlns="http://www.w3.org/2000/svg">
<rect width="45" height="45" rx="5" fill="#DEF9FF"/>
<g clip-path="url(#clip0_1572_5241)">
<path d="M32.1667 31.1119H12.7222C11.4949 31.1119 10.5 30.1045 10.5 28.8619V16.6152C10.5 15.3726 11.4949 14.3652 12.7222 14.3652H32.1667C33.3939 14.3652 34.3889 15.3726 34.3889 16.6152V28.8619C34.3889 30.1045 33.3939 31.1119 32.1667 31.1119Z" fill="#53D8E3"/>
<path d="M32.1666 14.3652H22.4443V31.1119H32.1666C33.3938 31.1119 34.3888 30.1045 34.3888 28.8619V16.6152C34.3888 15.3726 33.3938 14.3652 32.1666 14.3652Z" fill="#18A8C9"/>
<path d="M10.5 18.1934H34.3889V22.0212H10.5V18.1934Z" fill="#ECF6FD"/>
<path d="M17.1158 27.3984H13.3353C12.8751 27.3984 12.502 27.7762 12.502 28.2422C12.502 28.7082 12.8751 29.0859 13.3353 29.0859H17.1158C17.5761 29.0859 17.9492 28.7082 17.9492 28.2422C17.9492 27.7762 17.5761 27.3984 17.1158 27.3984Z" fill="#EAF6FF"/>
<path d="M22.4443 18.1934H34.3888V22.0212H22.4443V18.1934Z" fill="#D6E8FE"/>
</g>
<defs>
<clipPath id="clip0_1572_5241">
<rect width="24" height="18" fill="white" transform="translate(10.5 13.5)"/>
</clipPath>
</defs>
</svg>
