<svg width="32" height="32" viewBox="0 0 32 32" fill="none" xmlns="http://www.w3.org/2000/svg">
<rect width="32" height="32" rx="6" fill="#8D6E63"/>
<g clip-path="url(#clip0_2973_74096)">
<path d="M23.826 21.1739L17.1117 9.54444C16.6175 8.68847 15.3827 8.68816 14.8883 9.54444L8.17402 21.1739C7.67983 22.0299 8.29695 23.0994 9.2857 23.0994H22.7143C23.7027 23.0994 24.3204 22.0302 23.826 21.1739ZM16.5882 20.0332C16.5882 20.358 16.3248 20.6214 16 20.6214C15.6752 20.6214 15.4119 20.358 15.4119 20.0332V19.682C15.4119 19.3572 15.6752 19.0938 16 19.0938C16.3248 19.0938 16.5882 19.3572 16.5882 19.682V20.0332ZM16.5882 17.7416C16.5882 18.0664 16.3248 18.3297 16 18.3297C15.6752 18.3297 15.4119 18.0664 15.4119 17.7416V14.37C15.4119 14.0452 15.6752 13.7819 16 13.7819C16.3248 13.7819 16.5882 14.0452 16.5882 14.37V17.7416Z" fill="white"/>
</g>
<defs>
<clipPath id="clip0_2973_74096">
<rect width="16" height="16" fill="white" transform="translate(8 8)"/>
</clipPath>
</defs>
</svg>
