<svg width="37" height="37" viewBox="0 0 37 37" fill="none" xmlns="http://www.w3.org/2000/svg">
<rect width="37" height="37" rx="18.5" fill="#BFC5FF"/>
<g clip-path="url(#clip0_2962_9127)">
<path d="M14.4253 16.2037L14.9971 16.2751C15.0314 16.3682 15.0694 16.46 15.1112 16.5502L14.7573 17.0052C14.6122 17.1918 14.6287 17.4573 14.7959 17.6245L15.861 18.6896C16.0282 18.8568 16.2936 18.8733 16.4802 18.7282L16.9353 18.3743C17.0255 18.416 17.1173 18.4541 17.2104 18.4884L17.2817 19.0602C17.3111 19.2947 17.5105 19.4708 17.7469 19.4708H19.2531C19.4896 19.4708 19.689 19.2948 19.7183 19.0602L19.7897 18.4884C19.8828 18.4541 19.9746 18.4161 20.0648 18.3743L20.5198 18.7282C20.7065 18.8733 20.9719 18.8568 21.1391 18.6897L22.2042 17.6245C22.3714 17.4573 22.3879 17.1918 22.2428 17.0052L21.8889 16.5502C21.9306 16.46 21.9687 16.3682 22.003 16.2751L22.5748 16.2037C22.8094 16.1744 22.9855 15.975 22.9855 15.7386V14.2323C22.9855 13.9959 22.8094 13.7965 22.5748 13.7672L22.003 13.6958C21.9687 13.6027 21.9306 13.5109 21.8889 13.4207L22.2428 12.9657C22.3879 12.779 22.3714 12.5136 22.2042 12.3464L21.1391 11.2813C20.9719 11.1141 20.7064 11.0976 20.5198 11.2427L20.0648 11.5966C19.9746 11.5548 19.8828 11.5167 19.7897 11.4824L19.7183 10.9107C19.689 10.6761 19.4896 10.5 19.2532 10.5H17.7469C17.5105 10.5 17.3111 10.6761 17.2818 10.9107L17.2104 11.4824C17.1173 11.5167 17.0255 11.5548 16.9353 11.5966L16.4802 11.2427C16.2936 11.0976 16.0282 11.1141 15.861 11.2812L14.7959 12.3464C14.6287 12.5136 14.6122 12.779 14.7573 12.9656L15.1112 13.4207C15.0695 13.5109 15.0314 13.6027 14.9971 13.6958L14.4253 13.7672C14.1907 13.7965 14.0146 13.9959 14.0146 14.2323V15.7386C14.0146 15.975 14.1907 16.1744 14.4253 16.2037ZM18.5001 13.2615C19.4506 13.2615 20.224 14.0348 20.224 14.9854C20.1374 17.2694 16.8624 17.2688 16.7761 14.9854C16.7761 14.0348 17.5495 13.2615 18.5001 13.2615Z" fill="#080607"/>
<path d="M18.4998 15.7709C18.9335 15.7709 19.2863 15.4181 19.2863 14.9844C19.2468 13.9425 17.7528 13.9428 17.7134 14.9844C17.7134 15.4181 18.0662 15.7709 18.4998 15.7709Z" fill="#080607"/>
<path d="M16.7141 20.7623L15.4708 19.5705C14.7123 18.8434 13.452 19.3767 13.4458 20.4275C13.4438 20.7691 13.6239 20.995 13.7203 21.0914L14.5637 21.9348C14.9886 22.399 14.3517 23.0205 13.8915 22.5884L12.6456 21.3425C12.5577 21.2546 12.5083 21.1354 12.5083 21.0111V17.0736C12.5083 16.239 11.8439 15.5206 10.9663 15.5215C10.7084 15.5217 10.5 15.7324 10.5 15.9902V22.5173C10.5 22.6416 10.5494 22.7609 10.6373 22.8488L13.0104 25.2219V26.0319C13.0104 26.2908 13.2203 26.5006 13.4792 26.5006H16.4917C16.7505 26.5006 16.9604 26.2908 16.9604 26.0319V25.2129C18.099 23.9693 17.9843 21.8738 16.7141 20.7623Z" fill="#080607"/>
<path d="M26.0338 15.5215C25.1561 15.5206 24.4917 16.239 24.4917 17.0736V21.0111C24.4917 21.1354 24.4423 21.2546 24.3544 21.3425L23.1086 22.5884C22.6478 23.0206 22.0116 22.3985 22.4363 21.9348L23.2797 21.0914C23.3762 20.995 23.5562 20.7691 23.5542 20.4275C23.548 19.3768 22.2877 18.8434 21.5292 19.5705L20.286 20.7623C19.0156 21.8738 18.9011 23.9694 20.0396 25.2129V26.0319C20.0396 26.2908 20.2495 26.5006 20.5083 26.5006H23.5208C23.7797 26.5006 23.9896 26.2908 23.9896 26.0319V25.2219L26.3627 22.8488C26.4506 22.7609 26.5 22.6416 26.5 22.5173V15.9902C26.5001 15.7324 26.2917 15.5217 26.0338 15.5215Z" fill="#080607"/>
</g>
<defs>
<clipPath id="clip0_2962_9127">
<rect width="16" height="16" fill="white" transform="translate(10.5 10.5)"/>
</clipPath>
</defs>
</svg>
