<svg width="37" height="37" viewBox="0 0 37 37" fill="none" xmlns="http://www.w3.org/2000/svg">
<rect width="37" height="37" rx="18.5" fill="#B5FFAE"/>
<g clip-path="url(#clip0_2962_9111)">
<path d="M17.5312 10.5C15.205 10.5 13.3125 12.3925 13.3125 14.7188C13.3125 17.045 15.205 18.9375 17.5312 18.9375C19.8575 18.9375 21.75 17.045 21.75 14.7188C21.75 12.3925 19.8575 10.5 17.5312 10.5Z" fill="#080607"/>
<path d="M23.2188 19.9375C22.4879 19.9375 21.8122 20.1778 21.2662 20.5833C20.3677 20.125 19.3857 19.875 18.4688 19.875H16.5938C14.9685 19.875 13.4373 20.5208 12.2823 21.6936C11.133 22.8606 10.5 24.4011 10.5 26.0312C10.5 26.2901 10.7099 26.5 10.9688 26.5H23.2188C25.028 26.5 26.5 25.028 26.5 23.2188C26.5 21.4095 25.028 19.9375 23.2188 19.9375ZM23.2188 25.5625C21.9264 25.5625 20.875 24.5111 20.875 23.2188C20.875 22.5351 21.1693 21.919 21.6378 21.4902C21.6394 21.4887 21.641 21.4872 21.6426 21.4856C22.0592 21.1065 22.6124 20.875 23.2188 20.875C24.5111 20.875 25.5625 21.9264 25.5625 23.2188C25.5625 24.5111 24.5111 25.5625 23.2188 25.5625Z" fill="#080607"/>
<path d="M24.1562 22.75H23.6875V22.2812C23.6875 22.0224 23.4776 21.8125 23.2188 21.8125C22.9599 21.8125 22.75 22.0224 22.75 22.2812V22.75H22.2812C22.0224 22.75 21.8125 22.9599 21.8125 23.2188C21.8125 23.4776 22.0224 23.6875 22.2812 23.6875H22.75V24.1562C22.75 24.4151 22.9599 24.625 23.2188 24.625C23.4776 24.625 23.6875 24.4151 23.6875 24.1562V23.6875H24.1562C24.4151 23.6875 24.625 23.4776 24.625 23.2188C24.625 22.9599 24.4151 22.75 24.1562 22.75Z" fill="#080607"/>
</g>
<defs>
<clipPath id="clip0_2962_9111">
<rect width="16" height="16" fill="white" transform="translate(10.5 10.5)"/>
</clipPath>
</defs>
</svg>
