<svg width="8" height="6" viewBox="0 0 8 6" fill="none" xmlns="http://www.w3.org/2000/svg">
<path fill-rule="evenodd" clip-rule="evenodd" d="M4.10856 4.94425C3.96794 5.0847 3.77731 5.16359 3.57856 5.16359C3.37981 5.16359 3.18919 5.0847 3.04856 4.94425L0.219564 2.11625C0.0789325 1.97555 -4.68632e-05 1.78475 2.08617e-08 1.58582C4.6905e-05 1.3869 0.079116 1.19613 0.219813 1.0555C0.360511 0.91487 0.551311 0.835891 0.75024 0.835938C0.94917 0.835984 1.13993 0.915054 1.28056 1.05575L3.57856 3.35375L5.87656 1.05575C6.01795 0.919064 6.20737 0.843378 6.40402 0.844994C6.60067 0.846609 6.78881 0.925397 6.92794 1.06439C7.06706 1.20338 7.14602 1.39145 7.14783 1.5881C7.14963 1.78475 7.07412 1.97424 6.93756 2.11575L4.10906 4.94475L4.10856 4.94425Z" fill="#6C757D"/>
</svg>
