<svg width="20" height="20" viewBox="0 0 20 20" fill="none" xmlns="http://www.w3.org/2000/svg">
<path d="M4.14062 11.0156H0.625C0.301406 11.0156 0.0390625 11.278 0.0390625 11.6016V19.4141C0.0390625 19.7377 0.301406 20 0.625 20H4.14062C4.46422 20 4.72656 19.7377 4.72656 19.4141V11.6016C4.72656 11.278 4.46422 11.0156 4.14062 11.0156Z" fill="#080607"/>
<path d="M19.0544 11.7576C18.4652 11.4883 17.7709 11.6135 17.3129 12.0715C16.7624 12.6221 16.0005 13.384 15.3288 14.0558C15.3225 15.5048 14.1421 16.6817 12.6917 16.6817H9.6875C9.36391 16.6817 9.10156 16.4194 9.10156 16.0958C9.10156 15.7722 9.36391 15.5099 9.6875 15.5099H12.6917C13.5011 15.5099 14.1572 14.8538 14.1572 14.0444C14.1572 13.2349 13.5009 12.5787 12.6914 12.5788L10.6071 12.579C9.15488 11.7452 7.43016 11.6257 5.89844 12.2222V18.6377C7.26855 18.9565 8.67293 19.1181 10.0777 19.1181C11.4281 19.1181 12.7822 18.9684 14.1027 18.6731C14.9336 18.4869 15.6914 18.0708 16.2942 17.4696L19.505 14.2663C20.2713 13.5019 20.0387 12.2076 19.0544 11.7576Z" fill="#080607"/>
<path d="M6.81942 9.13949L7.30192 8.8609C7.5945 9.08273 7.90875 9.26555 8.24215 9.40777V9.96094C8.24215 10.2845 8.50449 10.5469 8.82809 10.5469H11.1718C11.4954 10.5469 11.7578 10.2845 11.7578 9.96094V9.40777C12.0912 9.26555 12.4054 9.08273 12.698 8.8609L13.1805 9.13949C13.4607 9.30129 13.8191 9.20527 13.9809 8.92504L15.1528 6.89527C15.3146 6.61504 15.2186 6.25668 14.9383 6.09488L14.4579 5.81746C14.4807 5.635 14.4922 5.45312 14.4922 5.27344C14.4922 5.09375 14.4807 4.91187 14.4579 4.72941L14.9384 4.45199C15.2186 4.2902 15.3147 3.93184 15.1529 3.6516L13.981 1.62184C13.8192 1.3416 13.4608 1.24555 13.1806 1.40738L12.6981 1.68594C12.4056 1.46414 12.0912 1.28129 11.7578 1.13906V0.585938C11.7578 0.262344 11.4955 0 11.1719 0H8.82813C8.50453 0 8.24219 0.262344 8.24219 0.585938V1.13906C7.90879 1.28129 7.59446 1.46414 7.30196 1.68594L6.81946 1.40734C6.53922 1.24555 6.18086 1.34156 6.01907 1.6218L4.84719 3.65156C4.68539 3.9318 4.78141 4.29016 5.06164 4.45195L5.54211 4.72937C5.5193 4.91187 5.50782 5.09375 5.50782 5.27344C5.50782 5.45312 5.5193 5.635 5.54207 5.81746L5.0616 6.09488C4.78137 6.25668 4.68535 6.61504 4.84715 6.89527L6.01903 8.92504C6.18082 9.20531 6.53918 9.30133 6.81942 9.13949ZM10 3.51562C10.9693 3.51562 11.7578 4.30418 11.7578 5.27344C11.7578 6.2427 10.9693 7.03125 10 7.03125C9.03075 7.03125 8.24219 6.2427 8.24219 5.27344C8.24219 4.30418 9.03075 3.51562 10 3.51562Z" fill="#080607"/>
</svg>
