<svg width="20" height="20" viewBox="0 0 20 20" fill="none" xmlns="http://www.w3.org/2000/svg">
<g clip-path="url(#clip0_2983_751)">
<path d="M2.59344 9.41473V1.25586H1.84082C1.51723 1.25586 1.25488 1.5182 1.25488 1.8418V9.47234C1.44453 9.4348 1.64035 9.41469 1.84082 9.41469H2.59344V9.41473Z" fill="white"/>
<path d="M18.1589 9.33008H16.796C16.6172 9.33008 16.4491 9.39973 16.3226 9.52621L15.4352 10.4136C15.3253 10.5235 15.1762 10.5853 15.0209 10.5853H1.84117C0.812266 10.5853 0 11.4209 0 12.4264V18.1582C0 19.1847 0.833008 19.9993 1.84113 19.9993H18.1588C19.1854 19.9993 20 19.1663 20 18.1582V11.1712C20 10.1447 19.167 9.33008 18.1589 9.33008Z" fill="white"/>
<path d="M6.27605 5.28953C6.27605 5.0802 6.38773 4.88676 6.56902 4.78211L10.6484 2.42668C10.8298 2.32199 11.0531 2.32199 11.2344 2.42668L15.3138 4.78207C15.4951 4.88676 15.6068 5.08016 15.6068 5.28949V8.59488C15.9389 8.31289 16.3555 8.15883 16.796 8.15883H18.1172V0.585938C18.1172 0.262344 17.8548 0 17.5312 0H4.35156C4.02797 0 3.76562 0.262344 3.76562 0.585938V9.41406H6.27605V5.28953Z" fill="white"/>
<path d="M10.1807 7.64426L10.941 8.7848L11.7013 7.64426L10.941 6.50391L10.1807 7.64426Z" fill="white"/>
<path d="M11.9309 9.41469H14.4352V5.6284L10.9417 3.61133L7.44824 5.6284V9.41469H9.95258L8.98969 7.97023C8.85848 7.7734 8.85848 7.51699 8.98969 7.32016L10.4542 5.12355C10.6757 4.77852 11.2078 4.77859 11.4293 5.12355L12.8938 7.32016C13.025 7.51699 13.025 7.7734 12.8938 7.97023L11.9309 9.41469Z" fill="white"/>
</g>
<defs>
<clipPath id="clip0_2983_751">
<rect width="20" height="20" fill="white"/>
</clipPath>
</defs>
</svg>
