<svg width="20" height="20" viewBox="0 0 20 20" fill="none" xmlns="http://www.w3.org/2000/svg">
<g clip-path="url(#clip0_881_294)">
<path d="M19.4141 7.07031H18.2848C18.1811 6.77523 18.0631 6.48828 17.9316 6.2116L18.7284 5.41488C18.8382 5.305 18.9 5.15598 18.9 5.00055C18.9 4.84512 18.8383 4.69613 18.7284 4.58625L15.4138 1.27168C15.185 1.04285 14.8139 1.04285 14.5851 1.27168L13.7884 2.06844C13.5116 1.93691 13.2247 1.81891 12.9297 1.71527V0.585938C12.9297 0.262344 12.6673 0 12.3438 0H7.65625C7.33266 0 7.07031 0.262344 7.07031 0.585938V1.71527C6.77527 1.81891 6.48836 1.93691 6.21164 2.06844L5.41484 1.27168C5.18605 1.04285 4.81504 1.04285 4.58621 1.27168L1.2716 4.58625C1.16172 4.69613 1.09996 4.84516 1.09996 5.00055C1.09996 5.15594 1.16172 5.30496 1.2716 5.41488L2.06836 6.2116C1.93687 6.48828 1.81887 6.77523 1.71523 7.07031H0.585938C0.262344 7.07031 0 7.33266 0 7.65625V12.3438C0 12.6673 0.262344 12.9297 0.585938 12.9297H1.71527C1.81891 13.2247 1.93691 13.5116 2.06844 13.7884L1.27164 14.5852C1.16176 14.695 1.1 14.8441 1.1 14.9995C1.1 15.1549 1.16176 15.3039 1.27164 15.4138L4.58625 18.7284C4.69613 18.8382 4.84516 18.9 5.00055 18.9C5.15598 18.9 5.30496 18.8382 5.41488 18.7283L6.2116 17.9316C6.48832 18.0631 6.77531 18.1811 7.07031 18.2848V19.4141C7.07031 19.7377 7.33266 20 7.65625 20H12.3438C12.6673 20 12.9297 19.7377 12.9297 19.4141V18.2847C13.2247 18.1811 13.5116 18.0631 13.7884 17.9316L14.5851 18.7283C14.695 18.8382 14.844 18.8999 14.9994 18.8999C15.1548 18.8999 15.3039 18.8382 15.4137 18.7283L18.7283 15.4138C18.8382 15.3039 18.9 15.1548 18.9 14.9995C18.9 14.8441 18.8382 14.695 18.7283 14.5851L17.9316 13.7884C18.0631 13.5116 18.1811 13.2247 18.2847 12.9297H19.4141C19.7377 12.9297 20 12.6673 20 12.3438V7.65625C20 7.33266 19.7377 7.07031 19.4141 7.07031ZM10 15.2734C7.09223 15.2734 4.72656 12.9078 4.72656 10C4.72656 7.09223 7.09223 4.72656 10 4.72656C12.9078 4.72656 15.2734 7.09223 15.2734 10C15.2734 12.9078 12.9078 15.2734 10 15.2734Z" fill="white"/>
<path d="M12.3238 9.93754C11.7513 10.5744 10.9218 10.9758 10 10.9758C9.07824 10.9758 8.24867 10.5744 7.67621 9.9375C7.07094 10.402 6.67969 11.1322 6.67969 11.9523V12.7336C6.67969 13.0572 6.94203 13.3195 7.26562 13.3195H12.7344C13.058 13.3195 13.3203 13.0572 13.3203 12.7336V11.9523C13.3203 11.1322 12.9291 10.402 12.3238 9.93754Z" fill="white"/>
<path d="M10 9.80469C11.0787 9.80469 11.9531 8.93024 11.9531 7.85156C11.9531 6.77288 11.0787 5.89844 10 5.89844C8.92132 5.89844 8.04688 6.77288 8.04688 7.85156C8.04688 8.93024 8.92132 9.80469 10 9.80469Z" fill="white"/>
</g>
<defs>
<clipPath id="clip0_881_294">
<rect width="20" height="20" fill="white"/>
</clipPath>
</defs>
</svg>
