<svg width="20" height="20" viewBox="0 0 20 20" fill="none" xmlns="http://www.w3.org/2000/svg">
<path d="M19.4824 8.11127L18.438 7.93701C17.9034 7.84744 17.4574 7.48962 17.2444 6.97845L17.2415 6.97144C17.2362 6.95847 17.2305 6.94534 17.2249 6.93237C17.0099 6.41983 17.0709 5.84915 17.3885 5.40436L17.9823 4.57184C18.1581 4.32541 18.13 3.98804 17.9161 3.77411L16.1679 2.02545C15.9538 1.81137 15.6163 1.78329 15.3699 1.95938L14.5079 2.57492C14.0665 2.88971 13.5005 2.95288 12.991 2.74292L12.951 2.72644C12.4301 2.51526 12.065 2.0665 11.9748 1.52588L11.8063 0.517426C11.7563 0.218811 11.498 0 11.1952 0H8.72223C8.41949 0 8.16101 0.218811 8.11111 0.517578L7.93701 1.56204C7.84744 2.09656 7.48947 2.54257 6.978 2.75574L6.97083 2.75879C6.95801 2.76413 6.94519 2.76947 6.93253 2.77512C6.41998 2.99011 5.84915 2.92923 5.40421 2.61169L4.57169 2.01782C4.32526 1.84204 3.98804 1.86996 3.77396 2.08405L2.02545 3.83224C1.81122 4.04633 1.78329 4.38385 1.95923 4.63028L2.57477 5.4924C2.88956 5.93369 2.95273 6.49963 2.74261 7.00943L2.72644 7.0491C2.51511 7.57019 2.06635 7.93518 1.52588 8.02536L0.517273 8.19382C0.218811 8.24371 0 8.50204 0 8.80478V11.2778C0 11.5805 0.218811 11.839 0.517578 11.8887L1.56204 12.063C2.09656 12.1526 2.54257 12.5104 2.75558 13.0215L2.75848 13.0286C2.76382 13.0415 2.76947 13.0547 2.77512 13.0676C2.99011 13.5802 2.92908 14.1508 2.61154 14.5956L2.01767 15.4282C1.84189 15.6746 1.86996 16.012 2.08389 16.2259L3.83209 17.9745C4.04602 18.1886 4.3837 18.2166 4.63013 18.0406L5.4921 17.4251C5.93353 17.1104 6.49948 17.0471 7.00897 17.2571L7.04895 17.2736C7.56989 17.4847 7.93503 17.9335 8.02521 18.4741L8.19366 19.4826C8.24356 19.7812 8.50189 20 8.80463 20H11.2776C11.5805 20 11.839 19.7812 11.8887 19.4824L12.063 18.438C12.1524 17.9034 12.5104 17.4574 13.0219 17.2443L13.0292 17.2412C13.0418 17.2359 13.0547 17.2305 13.0673 17.2249C13.58 17.0099 14.1508 17.0708 14.5956 17.3883L15.4282 17.9822C15.6746 18.158 16.012 18.1299 16.2259 17.916L17.9745 16.1678C18.1886 15.9537 18.2166 15.6161 18.0406 15.3697L17.4251 14.5076C17.1103 14.0663 17.0471 13.5004 17.2572 12.9906L17.2736 12.9509C17.4847 12.4298 17.9335 12.0648 18.4741 11.9746L19.4826 11.8062C19.7812 11.7563 20 11.498 20 11.1951V8.72223C20 8.41949 19.7812 8.16101 19.4824 8.11127ZM10 15.2025C8.66714 15.2025 7.33429 14.6951 6.31958 13.6804C4.29016 11.651 4.29016 8.349 6.31958 6.31958C8.349 4.29016 11.651 4.29016 13.6804 6.31958C15.7098 8.349 15.7098 11.651 13.6804 13.6804C12.6657 14.6951 11.3329 15.2025 10 15.2025Z" fill="#080607"/>
</svg>
